<svg xmlns="http://www.w3.org/2000/svg" width="199" height="185" fill="none" viewBox="0 0 199 185">
  <path fill="#5B3F69" d="m110.323 97.433-8.909-.058c-.307-.001-.558.23-.56.516l-.063 8.38c-.002.287.245.521.553.523l8.908.058c.308.002.559-.229.561-.516l.063-8.38c.002-.286-.246-.52-.553-.523Zm-13.666 11.958-8.908-.058c-.308-.002-.559.229-.561.516l-.063 8.38c-.002.287.246.521.553.523l8.909.058c.307.002.558-.229.56-.516l.063-8.379c.003-.287-.245-.521-.553-.524Zm13.666 0-8.909-.058c-.307-.002-.558.229-.56.516l-.063 8.38c-.002.287.245.521.553.523l8.908.058c.308.002.559-.229.561-.516l.063-8.379c.002-.287-.246-.521-.553-.524ZM96.657 97.433l-8.908-.058c-.308-.001-.559.23-.561.516l-.063 8.38c-.002.287.246.521.553.523l8.909.058c.307.002.558-.229.56-.516l.063-8.38c.003-.286-.245-.52-.553-.523Z"/>
  <path fill="#5B3F69" d="M97.072 17.402 18.526 90.67a2.578 2.578 0 0 0-.596.833 2.396 2.396 0 0 0-.004 1.958c.137.31.339.59.593.826l12.843 11.963c.133.125.24.273.311.436.073.164.11.339.11.517l-.007 22.321a.297.297 0 0 1-.058.171.332.332 0 0 1-.336.129.33.33 0 0 1-.163-.086A8874.51 8874.51 0 0 0 8.41 108.461c-2.684-2.496-4.56-4.654-5.625-6.475-3.707-6.32-3.715-12.667-.022-19.044C3.77 81.197 5.48 79.2 7.897 76.953A81306.209 81306.209 0 0 0 84.837 5.16C87.485 2.688 91.81.79 95.659.263c7.714-1.057 14.267 1.07 19.659 6.382a626.71 626.71 0 0 1 2.228 2.198 102830.01 102830.01 0 0 1 72.421 67.51c2.807 2.625 4.749 4.86 5.825 6.702 5.161 8.86 2.577 17.606-4.797 24.533a2952.563 2952.563 0 0 1-16.633 15.507.81.81 0 0 1-.543.207l-23.443.02a.554.554 0 0 1-.433-.213.476.476 0 0 1-.06-.453c.143-.369.41-.733.8-1.093a12133.82 12133.82 0 0 0 28.89-26.99c1.451-1.36 1.458-2.714.021-4.064a53687.769 53687.769 0 0 0-78.103-73.107 3.166 3.166 0 0 0-1.015-.632 3.326 3.326 0 0 0-2.392 0 3.138 3.138 0 0 0-1.012.632Z"/>
  <path fill="#5B3F69" d="M119.41 150.252a2572.978 2572.978 0 0 0-52.64-.113c-5.52.049-9.42-.242-11.7-.872-5.845-1.621-9.659-5.174-11.444-10.658-.694-2.141-1.035-5.687-1.02-10.638a4989.1 4989.1 0 0 0-.05-38.722c0-.482.205-.946.57-1.292L97.51 37.245c.238-.221.52-.397.831-.517a2.723 2.723 0 0 1 1.959 0c.31.12.592.296.829.517l58.108 54.269c.271.258.238.473-.1.646-.319.16-.771.233-1.357.22a418.033 418.033 0 0 0-20.159.06c-1.513.04-2.663.033-3.805-1.046a9251.473 9251.473 0 0 0-34.058-31.687.782.782 0 0 0-1.05 0L60.574 95.27c-.09.084-.135.237-.135.46.014 10.578.035 21.149.064 31.713.014 3.917 1.335 6.035 5.725 6.042 30.696.062 61.392.016 92.088-.14 2.056-.013 2.991 2.025 1.506 3.404a9753.534 9753.534 0 0 0-46.037 42.971c-6.253 5.876-16.625 6.748-24.3 3.105-1.798-.853-3.911-2.414-6.338-4.683a5933.642 5933.642 0 0 0-18.59-17.286.306.306 0 0 1-.09-.16.292.292 0 0 1 .02-.179.315.315 0 0 1 .122-.14.351.351 0 0 1 .184-.054l23.743.02a2.048 2.048 0 0 1 1.37.533l7.125 6.661c.288.269.63.482 1.006.627a3.28 3.28 0 0 0 2.372 0 3.1 3.1 0 0 0 1.005-.627l18.147-16.939c.242-.227.192-.342-.15-.347Z"/>
</svg>
