<svg xmlns="http://www.w3.org/2000/svg" width="108" height="58" fill="none" viewBox="0 0 108 58">
  <path fill="#5B3F69" d="m57.227 0 1.947 2.126 1.982 2.126-1.874-.987c-1.046-.532-1.983-.987-2.091-.987-.109 0-.18 5.05-.18 11.238v11.237l-1.19-.949-1.226-.987-1.947 1.709c-1.082.949-2.38 2.05-2.92 2.467l-1.01.76V5.885l3.786-2.848L56.325.19l.902-.19ZM44.752 13.895l1.983 2.088-1.875-.759-1.91-.797v9.111c0 8.695-.037 9.112-.722 9.492-.72.417-.72.303-.72-7.783 0-6.986-.073-8.163-.541-8.163-.47 0-.541 1.215-.541 8.694 0 7.252-.072 8.77-.541 9.15-.469.418-.54-.531-.54-8.352 0-6.872-.109-8.77-.434-8.656-.36.151-.504 2.43-.576 9.301-.072 7.517-.18 9.226-.613 9.605-.469.418-.541-.645-.541-8.922 0-7.327-.108-9.339-.433-9.225-.36.152-.505 2.43-.577 9.34-.072 7.82-.18 9.187-.612 9.187-.47 0-.541-1.443-.541-10.365V16.515l2.415-1.519c1.839-1.177 5.228-3.227 5.336-3.227 0 0 .901.95 1.983 2.126Zm27.941.19 1.803 1.936-1.514-.797c-.83-.456-1.695-.797-1.91-.797-.253 0-.361 3.417-.361 10.25 0 5.62-.109 10.251-.217 10.251-.144 0-1.947-1.139-4.038-2.544l-3.785-2.581 2.632-.646c1.442-.341 2.812-.835 2.992-1.025.505-.531.18-.493-2.452.152-2.884.76-3.064.721-3.064-.342 0-.797.288-1.025 2.09-1.556 4.22-1.215 5.12-2.126 1.119-1.14-3.065.76-3.21.722-3.21-.34 0-.798.29-1.026 2.092-1.557 4.218-1.215 5.12-2.127 1.118-1.14-3.065.76-3.21.722-3.21-.341 0-.797.29-1.025 2.092-1.557 4.218-1.215 5.12-2.126 1.118-1.139-3.065.76-3.21.722-3.21-.341 0-.798.29-1.025 2.092-1.557 1.118-.304 2.452-.76 2.92-.987 1.55-.683.505-.76-1.766-.152-1.226.342-2.308.532-2.38.456-.18-.19 6.382-4.404 6.886-4.442.217 0 1.19.873 2.163 1.936Zm-9.157 18.603c4.65 3.569 8.653 6.568 8.87 6.682.396.152 2.847-.342 8.4-1.67.504-.114-1.731 1.86-4.976 4.403l-5.876 4.594-1.262-.987-1.262-1.025 1.514-1.632c.865-.911 1.478-1.709 1.37-1.785-.072-.076-3.57-2.81-7.787-6.074l-7.644-5.96-7.607 5.922c-4.146 3.265-7.571 6.074-7.571 6.226 0 .152.613.873 1.37 1.557l1.334 1.29-1.478 1.405-1.479 1.443-5.444-4.442c-3.028-2.43-5.408-4.48-5.336-4.556.108-.114 6.274 1.177 7.824 1.633.324.076 4.146-2.658 9.338-6.682 4.83-3.759 8.905-6.834 9.013-6.834.144 0 4.074 2.923 8.689 6.492Zm-3.858 1.29c4.976 3.835 5.805 4.557 3.822 3.342-4.435-2.772-8.364-5.05-8.653-5.05-.18 0-2.235 1.215-4.579 2.696-4.975 3.151-5.047 3.19-4.759 2.847.397-.455 9.158-7.44 9.338-7.44.108 0 2.271 1.632 4.831 3.606Zm2.2 7.252c3.785 3.076 7.21 5.809 7.679 6.15.793.532 1.081.342 7.968-5.163l7.138-5.694 4.904 3.948c3.028 2.43 4.939 3.759 4.939 3.379 0-.304-.144-.57-.36-.57-.181 0-.361-.417-.361-.949 0-.91.072-.949 2.343-.949 2.272 0 2.344.038 2.344.95 0 .607-.217.948-.541.948-.397 0-.54.456-.54 1.785v1.822l3.1 2.43c1.694 1.329 3.136 2.582 3.244 2.771.109.152-.432.304-1.189.304-1.226 0-2.308-.721-9.627-6.492-5.444-4.29-8.364-6.34-8.616-6.112-6.454 5.125-11.79 9.719-11.537 9.947.144.151 1.802 1.556 3.641 3.189 2.74 2.354 3.57 2.885 4.579 2.885.72 0 6.345.266 12.546.57 6.166.303 12.547.607 14.133.683 1.587.076-4.687.152-13.988.19l-16.837.076-10.997-8.922-10.996-8.922-11.104 8.922-11.069 8.884-16.945-.038C6.427 57.214-.639 57.138.046 57.1c.685-.038 7.751-.418 15.647-.76l14.385-.683 1.695-1.329c.901-.759 2.56-2.126 3.641-3.075l1.983-1.708-6.273-5.012c-3.461-2.771-6.345-5.05-6.381-5.05-.073 0-3.642 2.81-7.932 6.265-4.435 3.531-8.184 6.265-8.617 6.265-1.91-.038-1.658-.646 1.118-2.886 2.74-2.202 2.812-2.316 2.92-4.062.072-1.405 0-1.785-.433-1.785-.36 0-.576-.341-.576-.949 0-.91.072-.949 2.343-.949 2.235 0 2.343.038 2.343.911 0 .494-.216.987-.432 1.101-.253.076-.36.304-.217.456.109.152 2.272-1.405 4.723-3.417 2.488-2.05 4.615-3.683 4.76-3.683.144 0 3.244 2.468 6.922 5.43 3.677 2.999 6.886 5.58 7.138 5.732.289.19 3.353-2.05 8.148-5.96 4.255-3.455 7.788-6.265 7.896-6.265.108 0 3.28 2.506 7.03 5.543Zm-33.89 1.937c2.92 2.391 4.001 3.492 2.27 2.315-.468-.341-1.874-1.252-3.172-2.088l-2.38-1.518-1.766 1.177c-1.01.683-2.452 1.594-3.245 2.088l-1.442.835 1.226-1.063c.685-.57 2.09-1.784 3.064-2.658 1.01-.873 1.947-1.594 2.127-1.594.145-.038 1.623 1.1 3.317 2.505Zm60.28.113c1.84 1.481 3.353 2.734 3.353 2.848 0 .076-1.586-.835-3.497-2.05-1.983-1.291-3.677-2.126-3.893-1.937-.721.57-6.49 4.253-6.202 3.949.794-.873 6.238-5.43 6.526-5.43.18-.037 1.839 1.178 3.714 2.62Zm-26.463 3.835c3.822 3.189 7.103 5.922 7.283 6.15.433.494.253.38-7.823-4.973l-6.418-4.252-7.102 4.594c-7.752 5.011-8.293 5.315-6.959 4.214 2.2-1.898 13.88-11.428 13.989-11.428.036-.038 3.209 2.544 7.03 5.695Zm-37.243-.608c0 .76-.18.95-.901.95-.721 0-.902-.19-.902-.95 0-.759.18-.949.902-.949.72 0 .901.19.901.95Zm2.163 0c0 .76-.18.95-.9.95-.722 0-.902-.19-.902-.95 0-.759.18-.949.901-.949.721 0 .901.19.901.95Zm58.046 0c0 .76-.18.95-.9.95-.722 0-.902-.19-.902-.95 0-.759.18-.949.901-.949.721 0 .901.19.901.95Zm2.164 0c0 .76-.18.95-.902.95-.72 0-.901-.19-.901-.95 0-.759.18-.949.901-.949.721 0 .902.19.902.95Zm-62.373 2.658c0 .76-.18.95-.901.95-.721 0-.902-.19-.902-.95s.18-.95.902-.95c.72 0 .901.19.901.95Zm2.163 0c0 .76-.18.95-.9.95-.722 0-.902-.19-.902-.95s.18-.95.901-.95c.721 0 .901.19.901.95Zm58.046 0c0 .76-.18.95-.9.95-.722 0-.902-.19-.902-.95s.18-.95.901-.95c.721 0 .901.19.901.95Zm2.164 0c0 .76-.18.95-.902.95-.72 0-.901-.19-.901-.95s.18-.95.901-.95c.721 0 .902.19.902.95Zm-32.448 1.329v1.519h-2.885v-3.038h2.885v1.519Zm3.605 0v1.519h-2.884v-3.038h2.884v1.519Zm-3.605 3.796v1.519h-2.885v-3.037h2.885v1.518Zm3.605 0v1.519h-2.884v-3.037h2.884v1.518Z"/>
</svg>
