<svg xmlns="http://www.w3.org/2000/svg" width="200" height="200" fill="none" viewBox="0 0 200 200">
  <path fill="#5F1900" d="M-4 100v100h204V0H-4v100Zm104.587-57.261 2.29 2.323 2.333 2.324-2.205-1.079c-1.23-.58-2.333-1.079-2.46-1.079-.128 0-.212 5.519-.212 12.282v12.283l-1.4-1.038-1.442-1.079-2.29 1.868c-1.272 1.037-2.8 2.24-3.435 2.697l-1.188.83v-23.9l4.453-3.113 4.496-3.112 1.06-.207ZM85.913 57.925l2.332 2.283-2.205-.83-2.248-.872v9.959c0 9.502-.042 9.958-.848 10.373-.848.457-.848.332-.848-8.506 0-7.635-.085-8.921-.636-8.921-.552 0-.637 1.328-.637 9.502 0 7.925-.085 9.585-.636 10-.551.456-.636-.581-.636-9.129 0-7.51-.127-9.585-.509-9.46-.424.166-.594 2.655-.679 10.166-.084 8.215-.212 10.083-.72 10.498-.552.456-.637-.706-.637-9.751 0-8.009-.127-10.208-.509-10.083-.424.165-.594 2.655-.678 10.207-.085 8.548-.212 10.041-.721 10.041-.552 0-.636-1.576-.636-11.327V60.788l2.841-1.66c2.163-1.286 6.15-3.526 6.277-3.526 0 0 1.06 1.037 2.333 2.323Zm32.869.208 2.12 2.116-1.781-.871c-.975-.498-1.993-.872-2.248-.872-.297 0-.424 3.735-.424 11.204 0 6.14-.127 11.203-.254 11.203-.17 0-2.291-1.245-4.751-2.78l-4.453-2.822 3.096-.705c1.697-.374 3.308-.913 3.52-1.12.594-.581.213-.54-2.884.165-3.392.83-3.605.789-3.605-.373 0-.871.34-1.12 2.46-1.701 4.963-1.328 6.023-2.324 1.315-1.245-3.605.83-3.775.788-3.775-.373 0-.872.34-1.12 2.46-1.702 4.963-1.328 6.023-2.323 1.315-1.245-3.605.83-3.775.789-3.775-.373 0-.871.34-1.12 2.46-1.701 4.963-1.328 6.023-2.324 1.315-1.245-3.605.83-3.775.788-3.775-.373 0-.872.34-1.12 2.46-1.702 1.315-.332 2.884-.83 3.436-1.079 1.823-.747.593-.83-2.078-.166-1.442.374-2.715.581-2.8.498-.212-.207 7.507-4.813 8.101-4.854.254 0 1.4.954 2.545 2.116Zm-10.773 20.332c5.471 3.9 10.179 7.178 10.433 7.303.467.166 3.351-.374 9.882-1.826.594-.125-2.035 2.033-5.852 4.813l-6.914 5.02-1.484-1.078-1.484-1.12 1.781-1.784c1.018-.996 1.739-1.868 1.612-1.95-.085-.084-4.199-3.071-9.161-6.64L97.83 74.69l-8.948 6.473c-4.878 3.568-8.907 6.639-8.907 6.805 0 .166.721.954 1.612 1.701l1.569 1.41-1.739 1.536-1.739 1.577-6.404-4.855c-3.563-2.656-6.362-4.896-6.277-4.98.127-.124 7.38 1.287 9.203 1.785.382.083 4.878-2.904 10.985-7.303 5.683-4.108 10.476-7.469 10.603-7.469.17 0 4.792 3.195 10.221 7.096Zm-4.538 1.41c5.853 4.191 6.828 4.98 4.496 3.652-5.217-3.03-9.84-5.519-10.18-5.519-.211 0-2.629 1.328-5.385 2.946-5.853 3.444-5.938 3.486-5.599 3.112.467-.498 10.773-8.132 10.985-8.132.127 0 2.672 1.784 5.683 3.942Zm2.587 7.926c4.453 3.36 8.483 6.348 9.034 6.722.933.58 1.272.373 9.373-5.643l8.397-6.224 5.768 4.315c3.563 2.655 5.811 4.108 5.811 3.693 0-.332-.17-.623-.424-.623-.212 0-.425-.456-.425-1.037 0-.996.085-1.037 2.757-1.037s2.757.041 2.757 1.037c0 .664-.254 1.037-.636 1.037-.467 0-.636.498-.636 1.95v1.992l3.647 2.656c1.993 1.452 3.69 2.822 3.817 3.029.127.166-.509.332-1.399.332-1.442 0-2.715-.788-11.324-7.095-6.405-4.69-9.84-6.93-10.137-6.68-7.591 5.6-13.868 10.622-13.571 10.87.169.166 2.12 1.702 4.283 3.486 3.223 2.573 4.199 3.153 5.386 3.153.849 0 7.465.291 14.76.623 7.252.332 14.759.664 16.625.747 1.866.083-5.514.166-16.456.207l-19.806.083-12.936-9.75-12.935-9.752-13.063 9.751-13.02 9.71-19.934-.042c-10.942-.041-19.255-.124-18.449-.166.806-.041 9.119-.456 18.407-.83l16.922-.747 1.993-1.452c1.06-.83 3.012-2.323 4.284-3.36l2.333-1.868-7.38-5.477c-4.071-3.03-7.464-5.519-7.507-5.519-.085 0-4.283 3.07-9.33 6.847-5.217 3.858-9.628 6.846-10.137 6.846-2.247-.041-1.95-.705 1.315-3.153 3.223-2.407 3.308-2.532 3.435-4.44.085-1.536 0-1.95-.509-1.95-.424 0-.678-.374-.678-1.038 0-.996.085-1.037 2.757-1.037 2.63 0 2.756.041 2.756.996 0 .54-.254 1.079-.509 1.203-.296.083-.424.332-.254.498.127.166 2.672-1.535 5.556-3.734 2.926-2.241 5.429-4.025 5.598-4.025.17 0 3.817 2.697 8.143 5.933 4.326 3.278 8.1 6.1 8.398 6.266.34.207 3.944-2.24 9.585-6.515 5.004-3.776 9.16-6.846 9.288-6.846.127 0 3.859 2.738 8.27 6.058Zm-39.867 2.116c3.436 2.614 4.708 3.817 2.672 2.531-.551-.373-2.205-1.37-3.732-2.282l-2.8-1.66-2.077 1.287a138.408 138.408 0 0 1-3.817 2.282l-1.697.912 1.442-1.161c.806-.623 2.46-1.95 3.605-2.905 1.188-.954 2.29-1.743 2.502-1.743.17-.041 1.909 1.204 3.902 2.739Zm70.913.124c2.163 1.619 3.944 2.988 3.944 3.112 0 .084-1.866-.912-4.114-2.24-2.333-1.41-4.326-2.324-4.581-2.116-.848.622-7.634 4.647-7.294 4.315.933-.954 7.337-5.934 7.676-5.934.212-.041 2.163 1.287 4.369 2.864Zm-31.131 4.191c4.496 3.486 8.355 6.473 8.568 6.722.508.54.296.415-9.204-5.435l-7.55-4.648-8.354 5.021c-9.119 5.477-9.755 5.809-8.186 4.606 2.588-2.075 16.329-12.49 16.456-12.49.043-.041 3.775 2.78 8.27 6.224Zm-43.81-.663c0 .83-.213 1.037-1.061 1.037s-1.06-.208-1.06-1.037c0-.83.212-1.038 1.06-1.038.848 0 1.06.208 1.06 1.037Zm2.544 0c0 .83-.212 1.037-1.06 1.037-.849 0-1.06-.208-1.06-1.037 0-.83.211-1.038 1.06-1.038.848 0 1.06.208 1.06 1.037Zm68.283 0c0 .83-.212 1.037-1.061 1.037-.848 0-1.06-.208-1.06-1.037 0-.83.212-1.038 1.06-1.038.849 0 1.061.208 1.061 1.037Zm2.544 0c0 .83-.212 1.037-1.06 1.037-.848 0-1.06-.208-1.06-1.037 0-.83.212-1.038 1.06-1.038.848 0 1.06.208 1.06 1.037Zm-73.372 2.904c0 .83-.212 1.037-1.06 1.037-.848 0-1.06-.207-1.06-1.037s.212-1.037 1.06-1.037c.848 0 1.06.207 1.06 1.037Zm2.545 0c0 .83-.212 1.037-1.06 1.037-.849 0-1.06-.207-1.06-1.037s.211-1.037 1.06-1.037c.848 0 1.06.207 1.06 1.037Zm68.283 0c0 .83-.212 1.037-1.061 1.037-.848 0-1.06-.207-1.06-1.037s.212-1.037 1.06-1.037c.849 0 1.061.207 1.061 1.037Zm2.544 0c0 .83-.212 1.037-1.06 1.037-.848 0-1.06-.207-1.06-1.037s.212-1.037 1.06-1.037c.848 0 1.06.207 1.06 1.037Zm-38.17 1.452v1.66H93.97v-3.32h3.393v1.66Zm4.241 0v1.66h-3.393v-3.32h3.393v1.66Zm-4.241 4.15v1.659H93.97v-3.319h3.393v1.66Zm4.241 0v1.659h-3.393v-3.319h3.393v1.66Z"/>
</svg>
