<svg xmlns="http://www.w3.org/2000/svg" width="430" height="864" fill="none" viewBox="0 0 430 864">
  <path fill="#FAE3C6" d="M239.044 627.194c-1.669.093-3.641-.364-5.133-1.162-1.592-.851-3.189-2.367-4.22-3.914-1.147-1.722-2.009-4.066-2.348-6.146-.385-2.365-.252-5.199.267-7.534.592-2.663 1.866-5.579 3.325-7.83 1.655-2.556 4.087-5.113 6.46-6.915 2.675-2.03 6.141-3.781 9.287-4.782 3.513-1.117 7.758-1.672 11.423-1.571 4.058.112 8.706 1.051 12.544 2.459 4.219 1.549 8.805 4.143 12.41 6.944 3.934 3.056 7.949 7.311 10.89 11.446 3.189 4.486 6.124 10.229 7.986 15.494 2.011 5.68 3.41 12.571 3.845 18.623.465 6.497-.025 14.045-1.269 20.424-1.331 6.819-3.925 14.418-6.965 20.582-3.237 6.563-7.971 13.536-12.768 18.909-5.09 5.699-11.813 11.359-18.164 15.37-6.718 4.244-15.083 7.955-22.627 10.106-7.955 2.269-17.44 3.505-25.675 3.407-8.664-.101-18.6-1.701-26.921-4.274-8.732-2.702-18.358-7.292-26.094-12.38-8.101-5.33-16.611-12.826-23.087-20.263-6.767-7.771-13.384-17.844-17.967-27.254-4.782-9.817-8.817-21.899-10.984-32.715-2.256-11.265-3.178-24.587-2.554-36.084.65-11.958 3.163-25.587 6.757-36.935 3.733-11.786 9.758-24.699 16.277-35.017 6.761-10.7 16.101-21.861 25.269-30.283 9.497-8.723 21.686-17.159 33.004-22.911 11.707-5.951 26.028-10.837 38.792-13.298 13.19-2.542 28.712-3.271 42.065-2.033 13.785 1.278 29.433 5.034 42.419 10.122 13.393 5.248 28.012 13.495 39.642 22.299 11.987 9.074 24.432 21.48 33.765 33.581 9.611 12.459 18.834 28.358 25.046 43.063 6.389 15.127 11.528 33.557 13.979 49.938 2.519 16.837 2.966 36.593 1.264 53.546-1.748 17.412-6.286 37.125-12.244 53.444-6.118 16.751-15.576 34.984-25.589 49.451-10.272 14.838-24.22 30.193-37.772 41.658-13.892 11.753-31.552 22.969-47.842 30.451-16.689 7.666-36.969 13.73-54.957 16.49-18.419 2.827-39.984 3.05-58.456.659-18.905-2.445-40.265-8.356-57.916-15.968-18.054-7.786-37.668-19.69-53.192-32.221-15.872-12.81-32.253-30.126-44.442-46.899-12.456-17.14-24.29-38.867-32.123-58.873-8.002-20.431-14.246-45.21-16.976-67.159-2.544-18.234-8.052-38.782-14.978-55.677-6.752-16.471-16.847-34.314-27.405-48.333-10.286-13.66-24.043-27.701-37.323-38.02-12.93-10.047-29.213-19.513-44.16-25.606-14.54-5.93-32.093-10.403-47.584-12.072-15.06-1.622-32.596-1.06-47.529 1.576-14.506 2.56-30.812 7.84-44.18 14.361-12.974 6.328-26.988 15.692-37.95 25.425-10.629 9.437-21.506 21.996-29.437 34.074-7.684 11.701-14.852 26.389-19.38 39.828-4.382 13.006-7.57 28.663-8.587 42.438-.983 13.318-.219 28.782 2.124 41.905 2.262 12.671 6.665 26.868 11.982 38.456 5.128 11.174 12.613 23.189 20.327 32.525 7.429 8.99 17.25 18.123 26.646 24.702 9.035 6.325 20.325 12.134 30.609 15.686 9.877 3.409 21.717 5.727 32.088 6.223 9.941.477 21.437-.592 31.14-2.949 9.282-2.256 19.631-6.36 28.014-11.169 8.005-4.593 16.549-11.179 23.111-17.885 6.252-6.389 12.52-14.758 16.934-22.7 4.197-7.55 7.935-16.919 10.069-25.393 2.023-8.035 3.188-17.609 3.098-25.928-.085-7.866-1.325-16.898-3.414-24.443-1.968-7.111-5.269-14.967-8.985-21.234-3.491-5.888-8.372-12.081-13.249-16.716-4.563-4.338-10.455-8.565-15.97-11.384-5.136-2.625-11.438-4.78-17.06-5.764-5.212-.914-11.348-1.079-16.589-.379-4.831.645-10.298 2.221-14.749 4.325-4.079 1.925-8.482 4.858-11.85 7.976-3.065 2.838-6.15 6.656-8.271 10.345-1.914 3.331-3.586 7.525-4.433 11.325-.761 3.403-1.071 7.477-.756 10.958.278 3.09 1.14 6.612 2.389 9.417 1.101 2.473 2.835 5.106 4.704 6.983 1.638 1.646 3.875 3.186 5.99 4.012 1.861.729 4.197 1.105 6.171.908 1.772-.177 3.803-.893 5.291-1.935 1.396-.978 2.753-2.57 3.512-4.155.757-1.585 2.116-3.178 3.511-4.155 1.487-1.043 3.518-1.759 5.292-1.936 1.974-.197 4.309.181 6.17.908 2.114.826 4.353 2.366 5.991 4.012 1.868 1.877 3.603 4.511 4.704 6.983 1.249 2.806 2.11 6.327 2.389 9.417.313 3.483.003 7.557-.756 10.958-.849 3.801-2.52 7.995-4.435 11.326-2.119 3.689-5.206 7.506-8.27 10.344-3.368 3.118-7.772 6.051-11.849 7.977-4.452 2.103-9.918 3.679-14.75 4.325-5.24.699-11.378.535-16.589-.378-5.623-.985-11.924-3.141-17.061-5.766-5.515-2.819-11.405-7.046-15.968-11.384-4.878-4.635-9.758-10.827-13.25-16.715-3.717-6.267-7.018-14.123-8.986-21.235-2.089-7.545-3.328-16.577-3.414-24.443-.09-8.319 1.075-17.893 3.1-25.928 2.134-8.474 5.87-17.843 10.067-25.393 4.415-7.942 10.684-16.309 16.936-22.7 6.561-6.706 15.104-13.291 23.111-17.885 8.382-4.809 18.731-8.913 28.014-11.169 9.701-2.357 21.197-3.425 31.14-2.949 10.371.496 22.209 2.814 32.086 6.225 10.286 3.55 21.574 9.359 30.61 15.686 9.395 6.577 19.217 15.71 26.646 24.7 7.715 9.336 15.199 21.351 20.327 32.525 5.317 11.588 9.72 25.785 11.982 38.456 2.342 13.123 3.107 28.588 2.124 41.905-1.017 13.777-4.205 29.432-8.586 42.438-4.529 13.441-11.697 28.127-19.381 39.828-7.932 12.079-18.808 24.637-29.437 34.074-10.962 9.733-24.975 19.097-37.949 25.426-13.369 6.52-29.676 11.8-44.181 14.36-14.932 2.637-32.47 3.198-47.53 1.576-15.49-1.669-33.042-6.142-47.584-12.07-14.946-6.095-31.229-15.561-44.159-25.608-13.28-10.319-27.037-24.36-37.323-38.02-10.558-14.019-20.652-31.861-27.405-48.333-6.926-16.895-12.434-37.442-14.978-55.677-2.609-18.694-2.897-40.596-.834-59.366 2.113-19.231 7.324-40.972 14.075-58.948 6.911-18.406 17.513-38.415 28.692-54.262 11.44-16.218 26.925-32.971 41.939-45.45 15.356-12.765 34.84-24.908 52.789-32.966 18.348-8.238 40.614-14.694 60.344-17.553 20.161-2.922 43.742-2.975 63.919-.2 20.612 2.833 43.876 9.463 63.083 17.917 16.096 6.77 35.552 11.962 52.75 14.019 16.766 2.006 36.316 1.614 52.993-1.117 16.246-2.661 34.54-8.331 49.567-15.425 14.633-6.906 30.47-17.197 42.896-27.938 12.09-10.452 24.504-24.409 33.605-37.867 8.848-13.084 17.161-29.544 22.485-44.639 5.169-14.663 9.032-32.347 10.415-47.942 1.342-15.135.738-32.745-1.693-47.725-2.357-14.525-7.128-30.839-12.982-44.196-5.669-12.94-14.025-26.897-22.686-37.795-8.382-10.545-19.515-21.314-30.205-29.14-10.333-7.565-23.288-14.593-35.126-18.993-11.431-4.249-25.175-7.285-37.253-8.173-11.648-.856-25.156.042-36.602 2.491-11.023 2.359-23.358 6.853-33.404 12.233-9.66 5.173-20.027 12.684-28.056 20.398-7.71 7.408-15.515 17.172-21.104 26.492-5.356 8.934-10.237 20.074-13.171 30.204-2.808 9.692-4.648 21.292-4.929 31.432-.267 9.681.814 20.857 2.985 30.263 2.067 8.964 5.736 18.931 9.984 26.976 4.039 7.646 9.786 15.778 15.61 21.985 5.518 5.885 12.718 11.747 19.526 15.823 6.437 3.853 14.4 7.227 21.578 9.073 6.765 1.738 14.8 2.622 21.755 2.326 6.531-.279 14.004-1.684 20.212-3.867 5.808-2.041 12.19-5.362 17.239-9.04 4.702-3.427 9.605-8.165 13.217-12.859 3.348-4.351 6.55-9.93 8.6-15.115 1.892-4.781 3.344-10.612 3.861-15.771.474-4.726.29-10.255-.56-14.92-.776-4.247-2.336-9.003-4.273-12.804-1.752-3.432-4.326-7.07-6.99-9.752-2.386-2.403-5.544-4.727-8.53-6.178-2.652-1.288-5.945-2.254-8.85-2.503-2.56-.221-5.569.062-8.028.847-2.157.688-4.529 1.983-6.258 3.52-1.522 1.353-2.996 3.32-3.822 5.241-.743 1.724-1.177 3.955-1.073 5.849.098 1.776.711 3.825 1.621 5.317.91 1.493 1.526 3.541 1.623 5.319.103 1.893-.331 4.124-1.073 5.848-.826 1.92-2.3 3.886-3.823 5.239-1.728 1.539-4.1 2.832-6.257 3.522-2.46.784-5.469 1.068-8.027.847-2.906-.25-6.199-1.215-8.85-2.505-2.989-1.45-6.146-3.773-8.53-6.175-2.667-2.683-5.24-6.323-6.99-9.753-1.94-3.801-3.5-8.559-4.274-12.804-.852-4.666-1.033-10.195-.56-14.922.517-5.157 1.97-10.988 3.86-15.769 2.052-5.185 5.253-10.766 8.601-15.116 3.613-4.694 8.515-9.431 13.217-12.858 5.048-3.679 11.431-7 17.239-9.042 6.208-2.181 13.681-3.588 20.213-3.864 6.954-.296 14.99.585 21.754 2.326 7.178 1.846 15.141 5.217 21.578 9.072 6.808 4.076 14.006 9.938 19.527 15.823 5.822 6.207 11.57 14.338 15.608 21.986 4.249 8.043 7.916 18.012 9.985 26.974 2.171 9.406 3.252 20.581 2.983 30.264-.28 10.14-2.119 21.738-4.927 31.431-2.934 10.13-7.815 21.271-13.172 30.204-5.588 9.322-13.393 19.086-21.103 26.493-8.03 7.713-18.396 15.224-28.057 20.398-10.045 5.379-22.38 9.874-33.403 12.233-11.446 2.449-24.956 3.347-36.602 2.492-12.078-.888-25.822-3.925-37.253-8.174-11.84-4.401-24.793-11.427-35.127-18.994-10.69-7.825-21.822-18.594-30.205-29.141-8.662-10.897-17.016-24.854-22.686-37.793-5.852-13.357-10.624-29.671-12.981-44.197-2.43-14.981-3.035-32.591-1.693-47.726 1.383-15.593 5.244-33.278 10.415-47.941 5.324-15.096 13.636-31.556 22.485-44.64 9.101-13.457 21.513-27.413 33.604-37.865 12.428-10.743 28.263-21.032 42.895-27.938C-57.47 10.712-39.178 5.04-22.93 2.38-6.256-.351 13.294-.743 30.062 1.262c17.197 2.058 36.653 7.25 52.75 14.021 16.499 6.94 34.447 17.625 48.675 28.913 14.576 11.564 29.645 27.244 40.882 42.46 11.507 15.58 22.471 35.365 29.764 53.603 7.464 18.663 13.339 41.327 15.978 61.417 2.697 20.551 2.827 44.599.404 65.188-2.478 21.047-8.363 44.818-15.904 64.452-7.706 20.06-19.452 41.842-31.796 59.073-12.61 17.597-29.631 35.748-46.107 49.241-13.551 11.465-27.501 26.82-37.771 41.658-10.013 14.465-19.471 32.7-25.589 49.449-5.96 16.321-10.496 36.034-12.244 53.446-1.703 16.953-1.257 36.709 1.262 53.546 2.452 16.379 7.591 34.811 13.98 49.938 6.212 14.703 15.436 30.604 25.046 43.063 9.334 12.101 21.779 24.507 33.764 33.579 11.632 8.806 26.251 17.053 39.643 22.301 12.987 5.088 28.635 8.844 42.418 10.122 13.355 1.238 28.877.509 42.067-2.033 12.763-2.461 27.084-7.348 38.792-13.298 11.316-5.752 23.505-14.188 33.002-22.911 9.169-8.422 18.51-19.583 25.271-30.283 6.519-10.318 12.543-23.231 16.276-35.017 3.594-11.348 6.107-24.977 6.756-36.935.626-11.499-.298-24.819-2.553-36.084-2.166-10.816-6.201-22.898-10.983-32.715-4.585-9.41-11.2-19.483-17.968-27.254-6.475-7.437-14.985-14.935-23.086-20.263-7.738-5.088-17.363-9.68-26.094-12.38-8.321-2.573-18.259-4.173-26.921-4.274-8.236-.098-17.72 1.138-25.676 3.407-7.545 2.151-15.908 5.862-22.626 10.106-6.352 4.011-13.075 9.671-18.164 15.37-4.797 5.373-9.533 12.344-12.77 18.909-3.04 6.164-5.634 13.763-6.963 20.581-1.245 6.38-1.736 13.928-1.269 20.425.435 6.052 1.834 12.943 3.843 18.623 1.864 5.265 4.798 11.008 7.988 15.494 2.94 4.135 6.954 8.39 10.89 11.446 3.605 2.801 8.191 5.395 12.41 6.944 3.838 1.408 8.485 2.347 12.543 2.459 3.666.099 7.91-.456 11.424-1.571 3.146-1.001 6.612-2.752 9.285-4.782 2.374-1.804 4.805-4.359 6.461-6.915 1.46-2.251 2.733-5.169 3.326-7.83.519-2.335.652-5.169.267-7.534-.341-2.08-1.202-4.424-2.348-6.146-1.032-1.547-2.629-3.063-4.22-3.914-1.493-.798-3.464-1.255-5.133-1.163Z"/>
</svg>
