<svg xmlns="http://www.w3.org/2000/svg" width="50" height="50" fill="none" viewBox="0 0 50 50">
  <path fill="#F6E4FF" d="M27.142 4.169c2.345.004 3.533.016 4.56.047l.404.013c.467.016.927.037 1.483.063 2.217.103 3.73.453 5.058.969a10.15 10.15 0 0 1 3.69 2.403 10.226 10.226 0 0 1 2.403 3.69c.514 1.327.865 2.841.969 5.058.025.556.045 1.016.061 1.484l.013.404c.03 1.026.045 2.215.05 4.56v1.553l.001.588v.587l-.002 1.554c-.004 2.345-.016 3.533-.046 4.56l-.014.404c-.016.467-.037.927-.063 1.483-.103 2.217-.455 3.73-.969 5.058-.53 1.373-1.247 2.532-2.403 3.69a10.24 10.24 0 0 1-3.69 2.403c-1.329.514-2.841.865-5.058.969-.556.025-1.016.045-1.483.061l-.405.013c-1.026.03-2.215.045-4.56.05h-1.553l-.587.001h-.588l-1.554-.002c-2.344-.004-3.533-.016-4.56-.046l-.403-.014c-.468-.016-.928-.037-1.484-.063-2.217-.103-3.727-.455-5.057-.969a10.19 10.19 0 0 1-3.691-2.403 10.217 10.217 0 0 1-2.403-3.69c-.516-1.329-.865-2.841-.969-5.058-.025-.556-.045-1.016-.061-1.483l-.013-.405c-.03-1.026-.045-2.215-.049-4.56V22.86c.004-2.344.016-3.533.047-4.56l.013-.403c.016-.468.037-.928.063-1.484.103-2.219.453-3.73.969-5.057a10.165 10.165 0 0 1 2.403-3.691 10.202 10.202 0 0 1 3.69-2.403c1.329-.516 2.84-.865 5.058-.969.556-.025 1.016-.045 1.484-.061l.404-.013c1.026-.03 2.215-.045 4.56-.049h4.282ZM25 14.584c-5.757 0-10.417 4.666-10.417 10.417 0 5.756 4.666 10.416 10.417 10.416 5.756 0 10.416-4.666 10.416-10.416 0-5.757-4.666-10.417-10.416-10.417Zm0 4.167A6.25 6.25 0 0 1 31.25 25 6.25 6.25 0 0 1 25 31.25 6.25 6.25 0 0 1 18.75 25 6.25 6.25 0 0 1 25 18.75Zm10.937-7.292a2.606 2.606 0 0 0-2.604 2.602 2.606 2.606 0 0 0 2.604 2.605 2.606 2.606 0 0 0 2.604-2.605 2.606 2.606 0 0 0-2.604-2.602Z"/>
</svg>
