<svg xmlns="http://www.w3.org/2000/svg" width="107" height="100" fill="none" viewBox="0 0 107 100">
  <path fill="#5B3F69" d="m59.215 52.296-4.782-.031c-.165-.001-.3.123-.3.277l-.034 4.497c-.001.154.132.28.297.281l4.781.032c.165 0 .3-.123.301-.277l.034-4.498c.001-.154-.132-.28-.297-.28Zm-7.335 6.418-4.782-.03c-.165-.002-.3.122-.3.276l-.034 4.498c-.001.154.131.28.296.28l4.782.032c.165 0 .3-.123.301-.277l.034-4.498a.289.289 0 0 0-.297-.28Zm7.335 0-4.782-.03c-.165-.002-.3.122-.3.276l-.034 4.498c-.001.154.132.28.297.28l4.781.032c.165 0 .3-.123.301-.277l.034-4.498c.001-.154-.132-.28-.297-.28Zm-7.335-6.418-4.782-.031c-.165-.001-.3.123-.3.277l-.034 4.497c-.001.154.131.28.296.281l4.782.032c.165 0 .3-.123.301-.277l.034-4.498a.289.289 0 0 0-.297-.28Z"/>
  <path fill="#5B3F69" d="M52.102 9.34 9.944 48.666c-.137.129-.246.28-.32.447a1.298 1.298 0 0 0-.003 1.051c.074.167.182.317.319.444l6.893 6.421a.684.684 0 0 1 .226.511l-.004 11.981a.16.16 0 0 1-.03.092.182.182 0 0 1-.18.069.173.173 0 0 1-.089-.046c-4.069-3.81-8.15-7.616-12.241-11.42-1.441-1.34-2.448-2.498-3.02-3.475-1.99-3.392-1.993-6.8-.011-10.222.539-.937 1.457-2.008 2.755-3.214A43688.174 43688.174 0 0 0 45.535 2.769C46.957 1.443 49.28.424 51.344.141c4.14-.567 7.658.575 10.552 3.425l1.195 1.18a53527.18 53527.18 0 0 1 38.871 36.236c1.507 1.409 2.55 2.608 3.127 3.597 2.77 4.755 1.383 9.45-2.575 13.168a1580.108 1580.108 0 0 1-8.927 8.323.433.433 0 0 1-.292.11l-12.582.012a.3.3 0 0 1-.132-.031.276.276 0 0 1-.1-.084.254.254 0 0 1-.033-.243c.077-.198.22-.393.43-.586A6621.661 6621.661 0 0 0 96.383 50.76c.779-.729.782-1.456.011-2.18-14.01-13.14-27.984-26.22-41.92-39.24a1.695 1.695 0 0 0-.546-.339 1.784 1.784 0 0 0-1.283 0 1.683 1.683 0 0 0-.544.34Z"/>
  <path fill="#5B3F69" d="M64.091 80.647c-9.418-.117-18.836-.138-28.253-.061-2.964.026-5.057-.13-6.28-.469-3.137-.87-5.184-2.776-6.142-5.72-.373-1.149-.556-3.052-.548-5.71.018-6.965.009-13.892-.027-20.783 0-.259.11-.508.306-.694l29.19-27.219a1.39 1.39 0 0 1 .446-.277 1.462 1.462 0 0 1 1.05 0c.167.064.319.158.446.277L85.467 49.12c.146.139.128.254-.053.347-.171.086-.414.125-.728.118a224.196 224.196 0 0 0-10.82.032c-.813.022-1.43.018-2.043-.561a4999.513 4999.513 0 0 0-18.28-17.008.42.42 0 0 0-.563 0L32.512 51.136c-.049.045-.073.127-.073.247.008 5.677.019 11.351.034 17.022.008 2.102.717 3.239 3.073 3.242 16.476.034 32.952.009 49.427-.075 1.104-.007 1.606 1.087.809 1.827a5202.915 5202.915 0 0 0-24.71 23.065c-3.356 3.153-8.924 3.621-13.043 1.666-.965-.458-2.1-1.296-3.402-2.514a3217.24 3217.24 0 0 0-9.977-9.278.164.164 0 0 1-.049-.085.158.158 0 0 1 .01-.097.171.171 0 0 1 .066-.075.189.189 0 0 1 .1-.029l12.743.011c.275.002.539.105.735.286l3.824 3.575c.155.145.338.26.54.337a1.766 1.766 0 0 0 1.273 0c.202-.078.386-.192.54-.337l9.74-9.092c.13-.121.103-.183-.08-.185Z"/>
</svg>
