<?xml version="1.0" standalone="no"?>
<!DOCTYPE svg PUBLIC "-//W3C//DTD SVG 20010904//EN"
 "http://www.w3.org/TR/2001/REC-SVG-20010904/DTD/svg10.dtd">
<svg version="1.0" xmlns="http://www.w3.org/2000/svg"
 width="512.000000pt" height="512.000000pt" viewBox="0 0 512.000000 512.000000"
 preserveAspectRatio="xMidYMid meet" fill="#5B3F69">

<g transform="translate(0.000000,512.000000) scale(0.100000,-0.100000)"
fill="#5B3F69" stroke="none">
<path d="M3523 5052 c-43 -37 -341 -299 -663 -581 -322 -282 -593 -522 -602
-533 -25 -29 -23 -73 4 -92 35 -25 58 -19 109 24 26 22 50 40 53 40 3 0 6
-850 6 -1890 l0 -1890 -495 0 -495 0 0 328 0 329 58 -20 c141 -48 304 16 392
153 18 29 40 50 49 50 35 0 140 62 181 106 23 25 54 71 68 102 23 49 27 70 27
152 0 57 -5 104 -13 117 -10 19 -10 33 4 80 34 118 4 251 -80 349 -36 42 -128
97 -181 108 -21 5 -37 17 -50 42 -46 85 -168 162 -274 171 -66 6 -152 -15
-210 -51 -33 -21 -39 -22 -56 -9 -11 8 -35 21 -52 29 -19 8 -33 22 -33 32 0
21 -56 141 -77 165 -14 15 -15 25 -5 68 18 79 15 187 -8 254 -119 346 -592
449 -857 187 -121 -120 -167 -274 -128 -426 14 -55 14 -59 -5 -86 -88 -124
-117 -311 -71 -453 12 -34 10 -40 -29 -104 -75 -125 -104 -272 -80 -412 15
-91 81 -225 146 -299 96 -109 255 -196 407 -222 l67 -12 0 -364 0 -364 -289 0
c-277 0 -289 -1 -315 -21 -31 -25 -34 -61 -6 -89 20 -20 33 -20 2540 -20 2507
0 2520 0 2540 20 28 28 25 64 -6 89 -24 19 -40 21 -150 21 l-124 0 0 1890 c0
1040 3 1890 6 1890 4 0 26 -18 50 -40 49 -45 83 -51 114 -20 32 32 25 61 -27
112 -27 25 -333 296 -682 602 -458 402 -640 556 -657 556 -15 0 -52 -25 -101
-68z m666 -577 l501 -440 0 -1952 0 -1953 -1070 0 -1070 0 0 1949 0 1948 536
471 537 471 32 -27 c18 -15 258 -225 534 -467z m-3337 -1614 c78 -30 150 -97
189 -177 27 -53 32 -75 31 -132 0 -40 -7 -84 -17 -108 -25 -60 -22 -85 20
-139 57 -75 77 -129 82 -220 4 -78 -2 -114 -38 -202 -12 -31 -11 -35 34 -100
59 -87 83 -142 96 -223 39 -246 -135 -484 -404 -555 -77 -20 -230 -19 -309 1
-140 36 -287 146 -348 260 -92 170 -72 374 51 528 37 46 38 63 9 136 -16 41
-21 76 -21 135 0 96 16 145 80 238 l47 67 -24 71 c-62 190 37 367 245 436 60
19 207 11 277 -16z m808 -801 c53 -15 109 -66 138 -129 28 -58 35 -62 123 -76
89 -14 169 -118 169 -220 0 -29 -8 -76 -19 -106 -18 -53 -18 -56 0 -99 20 -51
24 -127 8 -184 -21 -77 -128 -156 -211 -156 -29 0 -48 -19 -73 -78 -34 -78
-115 -132 -200 -132 -58 0 -102 19 -153 64 -51 46 -80 46 -131 1 -70 -64 -152
-81 -228 -50 -69 29 -69 34 -2 74 83 49 190 164 234 251 48 95 65 167 65 277
0 113 -31 220 -89 311 l-40 61 14 48 c8 26 17 61 20 76 l6 28 30 -25 c41 -35
72 -33 118 9 67 61 138 78 221 55z m-732 -1219 c95 -80 209 -108 314 -77 31 9
59 16 62 16 3 0 6 -146 6 -325 l0 -325 -275 0 -275 0 0 364 0 364 48 10 c71
15 70 15 120 -27z"/>
<path d="M2867 3810 l-27 -21 0 -290 c0 -276 1 -290 20 -309 19 -19 33 -20
303 -20 240 0 286 2 305 16 22 15 22 17 22 308 0 236 -3 296 -14 312 -14 18
-31 19 -298 22 -277 3 -285 2 -311 -18z m503 -310 l0 -200 -200 0 -200 0 0
200 0 200 200 0 200 0 0 -200z"/>
<path d="M3793 3820 c-12 -5 -26 -18 -32 -29 -7 -12 -11 -119 -11 -294 0 -262
1 -275 21 -301 l20 -26 289 0 289 0 20 26 c20 26 21 39 21 304 0 259 -1 279
-19 301 l-19 24 -279 2 c-153 1 -288 -2 -300 -7z m487 -320 l0 -200 -200 0
-200 0 0 200 0 200 200 0 200 0 0 -200z"/>
<path d="M2867 2940 l-27 -21 0 -290 c0 -276 1 -290 20 -309 19 -19 33 -20
303 -20 240 0 286 2 305 16 22 15 22 17 22 313 0 265 -2 300 -17 312 -12 11
-77 15 -298 17 -273 3 -282 2 -308 -18z m503 -310 l0 -200 -200 0 -200 0 0
200 0 200 200 0 200 0 0 -200z"/>
<path d="M3775 2935 l-25 -24 0 -281 0 -281 25 -24 24 -25 281 0 281 0 24 25
25 24 0 281 0 281 -25 24 -24 25 -281 0 -281 0 -24 -25z m505 -305 l0 -200
-200 0 -200 0 0 200 0 200 200 0 200 0 0 -200z"/>
<path d="M2866 2069 l-26 -20 0 -287 c0 -158 4 -292 8 -298 20 -30 55 -34 324
-34 231 0 277 2 296 16 22 15 22 16 22 314 0 298 0 299 -22 314 -19 14 -65 16
-299 16 -264 0 -277 -1 -303 -21z m504 -309 l0 -200 -200 0 -200 0 0 200 0
200 200 0 200 0 0 -200z"/>
<path d="M3775 2065 l-25 -24 0 -281 0 -281 25 -24 24 -25 281 0 281 0 24 25
25 24 0 281 0 281 -25 24 -24 25 -281 0 -281 0 -24 -25z m505 -305 l0 -200
-200 0 -200 0 0 200 0 200 200 0 200 0 0 -200z"/>
<path d="M2875 1208 c-11 -6 -23 -16 -27 -22 -4 -6 -8 -140 -8 -298 l0 -287
26 -20 c26 -20 39 -21 303 -21 234 0 280 2 299 16 22 15 22 16 22 314 0 298 0
299 -22 314 -19 14 -64 16 -298 16 -186 -1 -281 -4 -295 -12z m495 -318 l0
-200 -200 0 -200 0 0 200 0 200 200 0 200 0 0 -200z"/>
<path d="M3775 1195 l-25 -24 0 -281 0 -281 25 -24 24 -25 281 0 281 0 24 25
25 24 0 281 0 281 -25 24 -24 25 -281 0 -281 0 -24 -25z m505 -305 l0 -200
-200 0 -200 0 0 200 0 200 200 0 200 0 0 -200z"/>
</g>
</svg>
