<?xml version="1.0" standalone="no"?>
<!DOCTYPE svg PUBLIC "-//W3C//DTD SVG 20010904//EN"
 "http://www.w3.org/TR/2001/REC-SVG-20010904/DTD/svg10.dtd">
<svg version="1.0" xmlns="http://www.w3.org/2000/svg"
 width="512.000000pt" height="512.000000pt" viewBox="0 0 512.000000 512.000000"
 preserveAspectRatio="xMidYMid meet" fill="#5B3F69">

<g transform="translate(0.000000,512.000000) scale(0.100000,-0.100000)"
fill="#5B3F69" stroke="none">
<path d="M2562 4799 c-20 -6 -40 -22 -52 -42 -19 -31 -20 -54 -20 -679 l0
-648 -66 0 c-114 0 -134 -27 -134 -180 l0 -100 -70 0 -70 0 0 106 c0 103 -1
106 -29 135 l-29 29 -141 0 -141 0 0 285 c0 392 11 375 -242 375 l-168 0 -32
-29 -33 -29 -3 -116 -4 -116 -69 0 -69 0 0 111 0 111 -34 34 -34 34 -170 0
-170 0 -30 -29 c-35 -35 -42 -66 -42 -177 l0 -84 -65 0 -65 0 0 95 c0 105 -14
152 -51 179 -19 13 -52 16 -192 16 l-169 0 -34 -34 -34 -34 0 -413 0 -412 115
-117 115 -116 0 -311 0 -312 26 -20 c35 -27 57 -26 91 3 l28 24 3 291 3 291
474 0 475 0 0 -1050 0 -1050 -475 0 -475 0 0 609 c0 627 -2 661 -40 681 -30
16 -68 12 -90 -10 -20 -20 -20 -33 -20 -649 l0 -629 -107 -3 c-92 -4 -114 -8
-146 -28 -63 -39 -77 -80 -77 -227 0 -112 3 -131 22 -166 12 -21 38 -49 58
-61 l35 -22 2445 0 2445 0 39 24 c61 38 76 82 76 229 0 143 -14 184 -77 223
-32 20 -54 24 -145 28 l-108 3 0 669 c0 656 0 669 -20 689 -22 22 -60 26 -90
10 -38 -20 -40 -53 -40 -721 l0 -648 -155 -3 c-143 -3 -156 -5 -176 -25 -14
-14 -22 -33 -21 -54 2 -64 -1 -63 355 -69 l322 -5 0 -100 0 -100 -2405 0
-2405 0 0 100 0 100 1963 5 c1929 5 1964 5 1978 24 21 29 18 80 -7 102 -19 17
-41 19 -210 22 l-189 3 0 1050 0 1049 475 0 474 0 3 -251 3 -251 28 -24 c34
-29 56 -30 91 -3 l26 20 0 272 0 271 115 116 115 117 0 412 0 413 -34 34 -34
34 -169 0 c-140 0 -173 -3 -192 -16 -37 -27 -51 -74 -51 -179 l0 -95 -65 0
-65 0 0 78 c0 113 -9 149 -42 183 l-30 29 -170 0 -170 0 -34 -34 -34 -34 0
-111 0 -111 -69 0 -69 0 -4 116 -3 116 -33 29 -32 29 -168 0 c-253 0 -242 17
-242 -375 l0 -285 -146 0 -146 0 -29 -29 c-28 -29 -29 -32 -29 -135 l0 -106
-70 0 -70 0 0 100 c0 150 -21 180 -124 180 l-56 0 0 333 0 333 251 134 c154
82 258 144 267 159 22 32 20 86 -3 117 -19 24 -493 285 -540 297 -11 3 -35 1
-53 -4z m250 -265 c141 -76 157 -88 141 -99 -16 -10 -284 -154 -305 -163 -4
-2 -8 75 -8 172 0 97 3 176 6 176 4 0 78 -39 166 -86z m-2382 -726 c0 -174 -8
-168 217 -168 223 0 213 -8 213 165 l0 125 89 0 89 0 4 -126 c4 -171 -5 -164
220 -164 166 0 169 0 193 25 24 23 25 30 25 145 l0 120 90 0 90 0 0 -337 0
-338 -92 -92 -93 -93 -520 0 -520 0 -92 92 -93 93 0 337 0 338 90 0 90 0 0
-122z m3210 2 c0 -115 1 -122 25 -145 24 -25 27 -25 193 -25 225 0 216 -7 220
164 l4 126 89 0 89 0 0 -125 c0 -173 -10 -165 212 -165 226 0 218 -6 218 167
l0 123 90 0 90 0 0 -337 0 -338 -92 -92 -93 -93 -520 0 -520 0 -92 92 -93 93
0 337 0 338 90 0 90 0 0 -120z m-970 -636 l0 -106 34 -34 34 -34 149 0 c118 0
153 3 171 16 40 27 52 66 52 164 l0 90 100 0 100 0 0 -36 c0 -33 11 -48 115
-154 l115 -118 0 -1071 0 -1071 -170 0 -170 0 0 228 c0 283 -11 390 -49 487
-163 421 -699 546 -1030 240 -115 -107 -184 -247 -201 -408 -5 -51 -10 -194
-10 -319 l0 -228 -165 0 -165 0 0 1071 0 1071 115 118 c104 106 115 121 115
154 l0 36 94 0 94 0 4 -106 c3 -105 3 -106 36 -135 l32 -29 151 0 151 0 34 34
34 34 0 106 0 106 115 0 115 0 0 -106z m-190 -1869 l0 -485 -65 0 -65 0 2 468
3 467 50 17 c28 9 56 17 63 18 9 0 12 -103 12 -485z m248 459 l32 -13 0 -465
0 -466 -65 0 -65 0 0 486 0 486 33 -7 c17 -4 47 -13 65 -21z m-538 -539 l0
-405 -60 0 -60 0 0 284 c0 255 2 290 20 348 16 52 85 178 97 178 2 0 3 -182 3
-405z m822 256 c22 -53 23 -72 26 -358 l3 -303 -60 0 -61 0 0 407 0 408 35
-49 c19 -27 45 -74 57 -105z"/>
</g>
</svg>
