<svg xmlns="http://www.w3.org/2000/svg" width="35" height="35" fill="none" viewBox="0 0 20 20">
  <path fill="#745086" fill-rule="evenodd" d="M19.94 3.015c.235-.436-.297-.304-.297-.304s-3.542 3.4-4.034 2.984c-.493-.417 3.468-3.676 3-4.285-.434-.567-3.914 3.485-4.332 2.99-.414-.494 2.98-4.04 2.98-4.04s.129-.535-.304-.3c-5.336 2.869-6.016 5.544-6.016 5.544s-.183.52.215.923c.04.035-9.735 9.754-11.043 11.066-.637.636 1.7 2.934 2.332 2.298C3.75 18.579 13.449 8.789 13.484 8.826c.402.401.922.217.922.217s2.67-.682 5.534-6.028Z" clip-rule="evenodd"/>
  <path fill="#745086" fill-rule="evenodd" d="M10.01 12.836c2.6 2.607 6.985 7 6.985 7s1.914-.626 2.184-2.243l-6.958-6.972c-.65.649-1.402 1.403-2.212 2.215Zm-3.424-2.259c1.033-1.033 1.997-1.998 2.796-2.8L1.82.2s-.136-.144-.437.159c-.598.595-1.754 4.39 3.148 9.3.777.78 1.453.887 2.056.918Z" clip-rule="evenodd"/>
</svg>
