<svg version="1.0" xmlns="http://www.w3.org/2000/svg"
 width="64.000000pt" height="64.000000pt" viewBox="0 0 64.000000 64.000000"
 preserveAspectRatio="xMidYMid meet" fill="#745086">

<g transform="translate(0.000000,64.000000) scale(0.100000,-0.100000)"
fill="#745086" stroke="none">
<path d="M367 540 l-26 -30 -166 0 c-153 0 -166 -1 -163 -17 3 -16 20 -18 165
-21 l162 -2 30 -30 c38 -39 74 -39 112 0 25 24 39 30 87 32 45 2 58 7 60 21 3
15 -5 17 -62 17 -36 0 -66 4 -66 10 0 20 -45 50 -76 50 -24 0 -39 -8 -57 -30z
m101 -44 c5 -23 -16 -46 -42 -46 -46 0 -62 48 -24 74 19 13 25 14 43 2 11 -7
21 -21 23 -30z"/>
<path d="M158 370 c-26 -27 -36 -30 -89 -30 -52 0 -59 -2 -59 -20 0 -18 7 -20
59 -20 53 0 63 -3 89 -30 19 -18 41 -30 57 -30 16 0 38 12 57 30 l30 30 164 0
c157 0 164 1 164 20 0 19 -7 20 -164 20 l-164 0 -30 30 c-19 18 -41 30 -57 30
-16 0 -38 -12 -57 -30z m96 -32 c14 -23 -3 -52 -33 -56 -42 -6 -67 38 -39 66
17 17 58 11 72 -10z"/>
<path d="M369 200 l-30 -30 -162 -2 c-145 -3 -162 -5 -165 -20 -3 -17 10 -18
163 -18 l166 0 26 -30 c18 -22 33 -30 57 -30 31 0 76 30 76 50 0 6 30 10 66
10 57 0 65 2 62 18 -2 13 -15 18 -60 20 -48 2 -62 8 -87 32 -38 39 -74 39
-112 0z m91 -25 c16 -19 10 -45 -15 -61 -39 -26 -86 31 -53 64 16 16 53 15 68
-3z"/>
</g>
</svg>