<?xml version="1.0" standalone="no"?>
<!DOCTYPE svg PUBLIC "-//W3C//DTD SVG 20010904//EN"
 "http://www.w3.org/TR/2001/REC-SVG-20010904/DTD/svg10.dtd">
<svg version="1.0" xmlns="http://www.w3.org/2000/svg"
 width="33" height="27" viewBox="0 0 512.000000 512.000000"
 preserveAspectRatio="xMidYMid meet">

<g transform="translate(0.000000,512.000000) scale(0.100000,-0.100000)"
fill="#274065" stroke="none">
<path d="M361 5109 c-172 -34 -318 -182 -351 -358 -14 -74 -14 -4308 0 -4382
34 -181 180 -326 361 -359 37 -7 582 -9 1615 -8 l1559 3 58 23 c117 48 221
152 269 270 l23 57 3 603 c2 331 0 602 -4 602 -4 0 -57 -48 -118 -108 -79 -76
-131 -117 -181 -143 -38 -20 -189 -76 -335 -124 -255 -84 -267 -87 -333 -82
-134 11 -254 93 -313 214 -21 43 -29 75 -32 138 -4 81 -4 84 88 359 77 232
100 289 140 349 35 52 192 216 569 592 l521 520 0 322 0 323 -540 0 c-595 0
-587 -1 -631 61 l-24 34 -3 553 -2 552 -1148 -1 c-631 -1 -1167 -5 -1191 -10z
m2549 -1507 c107 -53 107 -211 0 -264 -33 -17 -107 -18 -1113 -18 -1060 0
-1078 0 -1117 20 -45 23 -80 80 -80 130 0 48 35 107 78 129 36 20 61 20 1117
21 1009 0 1082 -1 1115 -18z m-600 -600 c107 -53 107 -211 0 -264 -32 -17 -92
-18 -813 -18 -760 0 -779 0 -817 20 -45 23 -80 80 -80 130 0 48 35 107 78 129
36 20 60 20 817 21 723 0 783 -1 815 -18z m0 -600 c107 -53 107 -211 0 -264
-32 -17 -92 -18 -813 -18 -760 0 -779 0 -817 20 -45 23 -80 80 -80 130 0 48
35 107 78 129 36 20 60 20 817 21 723 0 783 -1 815 -18z m0 -600 c107 -53 107
-211 0 -264 -32 -17 -92 -18 -813 -18 -760 0 -779 0 -817 20 -45 23 -80 80
-80 130 0 48 35 107 78 129 36 20 60 20 817 21 723 0 783 -1 815 -18z m600
-900 c107 -53 107 -211 0 -264 -32 -16 -78 -18 -515 -18 -535 0 -525 -1 -572
69 -48 71 -20 175 57 213 32 16 78 18 515 18 437 0 483 -2 515 -18z"/>
<path d="M2990 4670 l0 -450 454 0 453 0 -4 53 c-6 70 -38 166 -73 219 -16 23
-143 156 -282 295 -221 219 -262 256 -318 282 -65 30 -146 51 -201 51 l-29 0
0 -450z"/>
<path d="M4723 3626 c-58 -19 -121 -67 -238 -185 l-100 -101 210 -210 c115
-116 215 -210 221 -210 22 0 249 244 273 294 114 233 -115 490 -366 412z"/>
<path d="M3675 2630 l-490 -490 210 -210 c115 -115 214 -210 220 -210 6 0 231
220 500 490 l490 490 -210 210 c-115 115 -214 210 -220 210 -6 0 -231 -220
-500 -490z"/>
<path d="M2946 1692 c-37 -111 -66 -213 -64 -228 2 -15 15 -36 31 -48 l28 -20
209 69 c116 38 210 72 210 75 0 3 -78 83 -174 179 l-174 173 -66 -200z"/>
</g>
</svg>
