<svg xmlns="http://www.w3.org/2000/svg" width="14" height="14" fill="none" viewBox="0 0 14 14">
  <path fill="#745086" d="M1.167 12.833a4.667 4.667 0 1 1 9.333 0H9.333a3.5 3.5 0 1 0-7 0H1.167Zm4.666-5.25a3.499 3.499 0 0 1-3.5-3.5 3.499 3.499 0 1 1 7 0c0 1.934-1.566 3.5-3.5 3.5Zm0-1.166a2.333 2.333 0 1 0 .002-4.666 2.333 2.333 0 0 0-.002 4.666Zm4.833 2.16a4.668 4.668 0 0 1 2.75 4.256H12.25a3.5 3.5 0 0 0-2.063-3.192l.479-1.064Zm-.402-6.586a3.208 3.208 0 0 1-.93 6.163V6.979a2.041 2.041 0 0 0 .607-3.854l.323-1.134Z"/>
</svg>
