<?xml version="1.0" standalone="no"?>
<!DOCTYPE svg PUBLIC "-//W3C//DTD SVG 20010904//EN"
 "http://www.w3.org/TR/2001/REC-SVG-20010904/DTD/svg10.dtd">
<svg version="1.0" xmlns="http://www.w3.org/2000/svg"
 width="512.000000pt" height="512.000000pt" viewBox="0 0 512.000000 512.000000"
 preserveAspectRatio="xMidYMid meet" fill="#745086">

<g transform="translate(0.000000,512.000000) scale(0.100000,-0.100000)"
fill="#745086" stroke="none">
<path d="M2292 4849 c-87 -13 -182 -51 -261 -103 -46 -31 -357 -337 -1017
-998 -896 -898 -952 -957 -980 -1018 -25 -56 -29 -77 -29 -150 1 -70 5 -95 27
-142 70 -152 223 -234 386 -208 31 6 60 10 65 10 4 0 6 -408 5 -907 l-3 -908
-222 -3 -222 -2 -20 -27 c-28 -34 -26 -66 3 -100 l24 -28 1714 -2 c1368 -2
1718 0 1738 10 37 19 52 57 39 96 -21 60 -29 61 -448 61 l-381 0 -2 723 -3
724 -30 49 c-19 30 -49 60 -79 79 l-49 30 -482 0 -482 0 -49 -30 c-30 -19 -60
-49 -79 -79 l-30 -49 -3 -724 -2 -723 -385 0 -385 0 0 963 0 962 870 870 870
870 307 -307 c170 -169 321 -312 336 -317 57 -22 118 39 96 96 -11 32 -660
687 -701 709 -15 8 -35 14 -45 14 -10 0 -421 -403 -958 -939 -817 -815 -946
-941 -987 -956 -89 -33 -189 -3 -243 74 -26 37 -30 51 -30 109 0 55 5 75 27
112 15 26 421 438 960 976 709 708 946 938 988 962 155 86 354 86 500 0 19
-12 226 -211 460 -444 234 -233 438 -428 453 -433 57 -22 118 39 96 96 -11 32
-761 788 -856 864 -138 111 -329 164 -501 138z m233 -2994 l25 -24 0 -701 0
-700 -485 0 -485 0 0 704 0 705 26 20 c26 21 37 21 461 21 l434 0 24 -25z"/>
<path d="M1682 1247 c-19 -20 -22 -35 -22 -108 0 -76 2 -88 23 -107 32 -30 77
-29 108 4 21 23 24 34 24 111 0 77 -2 87 -24 104 -32 26 -82 25 -109 -4z"/>
<path d="M3768 3624 c-439 -68 -818 -408 -933 -834 -38 -144 -51 -283 -36
-398 23 -174 103 -418 236 -717 179 -403 622 -1217 714 -1312 41 -42 119 -80
183 -89 81 -11 200 37 265 107 23 26 195 330 340 604 364 685 559 1172 579
1446 23 303 -108 634 -340 865 -269 268 -634 387 -1008 328z m328 -155 c166
-23 332 -93 474 -200 286 -216 440 -603 371 -934 -68 -327 -310 -870 -728
-1630 -64 -115 -127 -222 -141 -238 -55 -58 -151 -56 -209 5 -50 53 -317 531
-504 901 -192 380 -321 691 -375 902 -73 286 -4 589 191 832 217 272 572 411
921 362z"/>
<path d="M3830 3214 c-58 -11 -160 -48 -225 -82 -97 -50 -247 -200 -297 -297
-69 -134 -83 -192 -83 -355 0 -163 14 -221 83 -355 50 -97 200 -247 297 -297
117 -60 187 -79 316 -85 147 -7 238 11 369 74 82 40 108 59 191 142 83 83 102
109 142 191 63 131 81 222 74 369 -6 129 -25 199 -85 316 -50 97 -200 247
-297 297 -125 65 -185 80 -330 83 -71 2 -141 1 -155 -1z m274 -169 c94 -25
194 -83 266 -155 228 -228 228 -592 0 -820 -228 -228 -592 -228 -820 0 -112
112 -170 252 -170 410 0 261 173 489 425 561 77 22 222 24 299 4z"/>
</g>
</svg>
