<svg xmlns="http://www.w3.org/2000/svg" width="35" height="38" fill="none" viewBox="0 0 35 38">
  <path fill="#5B3F69" stroke="#5B3F69" d="M.825 12c0-6.351 5.15-11.5 11.5-11.5H23C29.351.5 34.5 5.649 34.5 12v14c0 6.351-5.149 11.5-11.5 11.5H12.325c-6.35 0-11.5-5.149-11.5-11.5V12Z"/>
  <path fill="#fff" d="M23.783 23.391 28 27.608 26.608 29l-4.217-4.217a8.822 8.822 0 0 1-5.53 1.939C11.97 26.722 8 22.752 8 17.861S11.97 9 16.861 9s8.861 3.97 8.861 8.861a8.822 8.822 0 0 1-1.939 5.53Zm-1.975-.73a6.87 6.87 0 0 0 1.945-4.8 6.89 6.89 0 0 0-6.892-6.892 6.89 6.89 0 0 0-6.892 6.892 6.89 6.89 0 0 0 6.892 6.892 6.87 6.87 0 0 0 4.8-1.945l.147-.148Z"/>
</svg>
