<?xml version="1.0" standalone="no"?>
<!DOCTYPE svg PUBLIC "-//W3C//DTD SVG 20010904//EN"
 "http://www.w3.org/TR/2001/REC-SVG-20010904/DTD/svg10.dtd">
<svg version="1.0" xmlns="http://www.w3.org/2000/svg"
 width="512.000000pt" height="512.000000pt" viewBox="0 0 512.000000 512.000000"
 preserveAspectRatio="xMidYMid meet" fill="#745086">

<g transform="translate(0.000000,512.000000) scale(0.100000,-0.100000)"
fill="#745086" stroke="none">
<path d="M396 5000 c-35 -11 -81 -53 -95 -89 -17 -41 -281 -1510 -281 -1561 0
-82 55 -135 152 -146 l58 -7 0 -1468 0 -1469 -94 0 c-90 0 -96 -1 -115 -26
-34 -43 -26 -86 20 -109 43 -23 4995 -23 5038 0 46 23 54 66 21 108 -19 24
-27 26 -113 29 l-92 3 -3 1468 -2 1467 32 0 c90 0 170 54 183 123 10 51 -258
1533 -289 1597 -13 28 -34 52 -56 65 -35 20 -51 20 -1900 23 -1026 1 -1875 0
-1888 -3 -32 -8 -62 -41 -62 -69 0 -13 9 -35 21 -50 l20 -26 1865 0 c1589 0
1865 -2 1870 -14 11 -29 272 -1481 268 -1488 -3 -5 -258 -8 -566 -8 l-561 0
-36 39 c-20 21 -280 301 -579 623 -347 374 -556 591 -578 601 -42 21 -94 22
-138 3 -22 -9 -205 -199 -561 -582 -290 -313 -553 -595 -585 -626 l-58 -58
-561 0 c-498 0 -561 2 -561 15 0 14 253 1421 265 1473 5 21 8 22 143 22 132 0
140 1 160 23 36 38 28 88 -19 112 -32 17 -271 20 -323 5z m2427 -790 l246
-265 -249 -3 c-137 -1 -365 -1 -506 0 l-258 3 249 268 c137 147 254 266 261
265 6 -2 122 -122 257 -268z m647 -696 c140 -152 268 -283 285 -293 26 -14 86
-16 508 -19 l477 -3 0 -1469 0 -1470 -685 0 -685 0 0 113 c0 61 -5 128 -10
149 -14 48 -77 105 -135 119 l-44 11 -3 708 c-3 701 -3 709 -24 737 -11 15
-36 38 -54 51 -31 20 -44 22 -191 22 -86 0 -165 -3 -174 -6 -8 -4 -23 -20 -31
-36 -13 -25 -13 -35 -3 -59 6 -17 20 -34 30 -39 10 -6 81 -10 158 -10 l141 0
0 -685 0 -685 -465 0 -465 0 0 685 0 685 194 0 c180 0 195 1 220 21 34 27 36
77 2 108 -23 22 -27 22 -249 19 -210 -3 -228 -4 -254 -24 -66 -48 -63 -16 -63
-790 l0 -702 -37 -7 c-50 -9 -97 -39 -125 -78 -20 -28 -24 -47 -28 -167 l-5
-135 -687 -3 -688 -2 0 1469 0 1470 478 3 477 3 40 24 c22 13 152 144 289 292
l248 269 652 0 651 -1 255 -275z m-262 -3026 c8 -8 12 -49 12 -120 l0 -108
-655 0 -655 0 0 114 c0 82 4 116 13 119 6 3 296 6 642 6 478 1 634 -2 643 -11z"/>
<path d="M1952 3453 c-42 -20 -69 -55 -82 -105 -7 -25 -10 -163 -8 -381 3
-321 4 -344 23 -376 11 -19 33 -43 48 -55 28 -21 36 -21 621 -24 l592 -2 34
23 c19 12 45 38 57 56 23 34 23 36 23 401 0 365 0 367 -23 401 -12 18 -38 44
-56 56 l-34 23 -581 0 c-515 0 -585 -2 -614 -17z m298 -463 l0 -330 -120 0
-120 0 0 330 0 330 120 0 120 0 0 -330z m478 203 l-3 -128 -162 -3 -163 -2 0
130 0 130 165 0 166 0 -3 -127z m382 -203 l0 -330 -115 0 -115 0 0 330 0 330
115 0 115 0 0 -330z m-380 -205 l0 -125 -165 0 -165 0 0 125 0 125 165 0 165
0 0 -125z"/>
<path d="M815 2960 c-11 -4 -31 -20 -45 -35 l-25 -27 -3 -374 -3 -374 -24 0
c-56 0 -86 -79 -46 -119 11 -11 35 -23 53 -26 18 -3 182 -5 364 -3 310 3 333
4 353 22 42 38 18 122 -37 128 l-27 3 -5 370 c-4 264 -8 376 -17 391 -27 47
-65 54 -300 53 -120 0 -227 -4 -238 -9z m405 -270 l0 -130 -165 0 -165 0 0
130 0 130 165 0 165 0 0 -130z m0 -410 l0 -130 -162 2 -163 3 -3 128 -3 127
166 0 165 0 0 -130z"/>
<path d="M3802 2950 c-60 -37 -62 -51 -62 -445 l0 -355 -24 0 c-25 0 -66 -41
-66 -66 0 -33 25 -65 59 -75 23 -6 158 -9 373 -7 332 3 338 3 359 25 43 43 19
118 -40 125 l-26 3 -5 376 c-4 314 -7 379 -20 394 -33 39 -70 45 -297 45 -201
0 -221 -2 -251 -20z m418 -260 l0 -130 -165 0 -165 0 0 130 0 130 165 0 165 0
0 -130z m0 -410 l0 -130 -162 2 -163 3 -3 128 -3 127 166 0 165 0 0 -130z"/>
<path d="M798 1695 c-57 -32 -58 -41 -58 -435 0 -356 0 -360 -20 -360 -31 0
-70 -44 -70 -78 0 -17 9 -37 23 -50 23 -22 27 -22 385 -22 349 0 363 1 382 20
30 30 27 83 -6 109 -15 12 -35 21 -45 21 -17 0 -18 19 -21 375 l-3 375 -28 27
-27 28 -243 2 c-200 2 -247 0 -269 -12z m422 -260 l0 -125 -165 0 -165 0 0
125 0 125 165 0 165 0 0 -125z m0 -410 l0 -125 -165 0 -165 0 0 125 0 125 165
0 165 0 0 -125z"/>
<path d="M3798 1692 c-56 -34 -58 -47 -58 -436 0 -352 0 -356 -20 -356 -29 0
-70 -44 -70 -75 0 -14 11 -37 25 -50 l24 -25 356 0 c232 0 363 4 376 11 63 33
28 139 -46 139 -13 0 -15 53 -15 371 l0 371 -34 34 -34 34 -238 0 c-207 0
-243 -3 -266 -18z m422 -257 l0 -125 -165 0 -165 0 0 125 0 125 165 0 165 0 0
-125z m0 -410 l0 -125 -165 0 -165 0 0 125 0 125 165 0 165 0 0 -125z"/>
<path d="M2721 1454 c-24 -30 -26 -43 -10 -78 33 -72 139 -45 139 36 0 64 -89
92 -129 42z"/>
</g>
</svg>
