<?xml version="1.0" standalone="no"?>
<!DOCTYPE svg PUBLIC "-//W3C//DTD SVG 20010904//EN"
 "http://www.w3.org/TR/2001/REC-SVG-20010904/DTD/svg10.dtd">
<svg version="1.0" xmlns="http://www.w3.org/2000/svg"
 width="512.000000pt" height="512.000000pt" viewBox="0 0 512.000000 512.000000"
 preserveAspectRatio="xMidYMid meet">

<g transform="translate(0.000000,512.000000) scale(0.100000,-0.100000)"
fill="#745086" stroke="none">
<path d="M3552 5103 c-18 -9 -43 -30 -55 -47 l-22 -31 -3 -2012 -2 -2013 -290
0 -290 0 1 33 c0 17 37 365 82 772 l82 740 72 5 c109 8 167 60 167 150 0 54
-18 87 -68 124 -27 21 -30 21 -1563 24 -1536 2 -1536 2 -1579 -19 -80 -38
-107 -145 -55 -217 29 -42 79 -62 149 -62 l61 0 6 -42 c3 -24 64 -574 135
-1222 139 -1259 132 -1214 193 -1260 l28 -21 2200 -3 c2190 -2 2200 -2 2239
18 43 22 80 80 80 125 0 34 -195 718 -220 772 -13 30 -31 48 -59 63 -39 19
-57 20 -556 20 l-515 0 0 1997 c0 1976 0 1997 -20 2038 -36 74 -125 104 -198
68z m-833 -2580 c-5 -14 -31 -67 -57 -117 -148 -288 -389 -477 -707 -558 -80
-20 -115 -23 -305 -23 -189 0 -226 3 -302 22 -266 68 -465 198 -620 407 -50
67 -158 264 -158 288 0 5 486 8 1080 8 l1080 0 -11 -27z m-1931 -745 c141
-105 301 -177 502 -225 88 -21 138 -26 310 -30 178 -5 221 -2 328 16 273 46
509 158 692 328 54 50 60 53 60 32 0 -30 -89 -846 -96 -877 -4 -20 -10 -22
-74 -22 -152 0 -156 -6 -265 -389 l-89 -311 -682 0 -682 0 -6 43 c-3 23 -42
373 -86 777 -44 404 -82 750 -86 769 l-5 34 50 -44 c28 -24 86 -70 129 -101z
m3921 -1260 c29 -101 54 -191 57 -200 5 -17 -54 -18 -1145 -18 -633 0 -1151 3
-1151 6 0 4 78 282 106 377 5 16 63 17 1043 17 l1038 0 52 -182z"/>
</g>
</svg>
