<svg xmlns="http://www.w3.org/2000/svg" width="35" height="35" fill="none" viewBox="0 0 24 24">
  <g clip-path="url(#a)">
    <path fill="#745086" d="M23.4 19.5h-.6c-.977 0-1.718-.395-2.103-.84-.334-.384-.738-.66-1.192-.66h-.611c-.454 0-.858.276-1.191.66-.386.445-1.127.84-2.103.84-.976 0-1.717-.395-2.103-.84-.334-.384-.738-.66-1.192-.66h-.611c-.454 0-.858.276-1.191.66-.386.445-1.127.84-2.103.84-.977 0-1.718-.395-2.103-.84-.334-.384-.738-.66-1.192-.66h-.611c-.454 0-.858.276-1.191.66-.385.445-1.127.84-2.103.84H.6c-.331 0-.6.336-.6.75v1.5c0 .414.269.75.6.75h.6c1.448 0 2.727-.571 3.6-1.492.873.921 2.152 1.492 3.6 1.492s2.727-.571 3.6-1.492c.873.921 2.152 1.492 3.6 1.492s2.727-.571 3.6-1.492c.873.921 2.152 1.492 3.6 1.492h.6c.332 0 .6-.336.6-.75v-1.5c0-.414-.268-.75-.6-.75ZM8.4 18v-4.5h7.2V18c.717 0 1.157-.289 1.29-.442a3.21 3.21 0 0 1 1.11-.847V6c0-.827.538-1.5 1.2-1.5.662 0 1.2.673 1.2 1.5v.75c0 .414.269.75.6.75h1.2c.332 0 .6-.336.6-.75V6c0-2.482-1.615-4.5-3.6-4.5S15.6 3.518 15.6 6v4.5H8.4V6c0-.827.538-1.5 1.2-1.5.662 0 1.2.673 1.2 1.5v.75c0 .414.268.75.6.75h1.2c.332 0 .6-.336.6-.75V6c0-2.482-1.615-4.5-3.6-4.5S6 3.518 6 6v10.71c.39.176.766.452 1.11.848.133.153.573.442 1.29.442Z"/>
  </g>
  <defs>
    <clipPath id="a">
      <path fill="#fff" d="M0 0h24v24H0z"/>
    </clipPath>
  </defs>
</svg>
