<svg xmlns="http://www.w3.org/2000/svg" width="33" height="27" fill="none" viewBox="0 0 33 27">
  <path fill="#5B3F69" d="M8.1 0v27H2.7v-5.4H0v-2.7h2.7v-4.05H0v-2.7h2.7V8.1H0V5.4h2.7V0h5.4Zm16.207 0A2.696 2.696 0 0 1 27 2.688v21.624A2.69 2.69 0 0 1 24.307 27H10.8V0h13.507Z"/>
  <path fill="#fff" d="M19.567 8.959c.97 0 1.766.23 2.384.688.63.458.944 1.088.944 1.888 0 .714-.192 1.322-.576 1.824-.373.501-.837.805-1.392.912v.08c.512.202.934.554 1.264 1.056.33.501.496 1.104.496 1.808 0 .586.032 1.03.096 1.328.064.298.15.506.256.624.107.117.262.208.464.272v.448a1.966 1.966 0 0 1-.752.144c-.512 0-.912-.15-1.2-.448-.288-.31-.432-.886-.432-1.728 0-.864-.181-1.536-.544-2.016-.352-.49-.794-.736-1.328-.736h-2.784v4.832h-1.568V8.959h4.672Zm-3.104 1.424v3.296h3.12c.459 0 .864-.155 1.216-.464.352-.31.528-.694.528-1.152v-.064c0-.47-.16-.854-.48-1.152-.32-.31-.741-.464-1.264-.464h-3.12Z"/>
</svg>
