<svg width="48" height="48" viewBox="0 0 24 24" fill="rgba(149,123,176,1)" xmlns="http://www.w3.org/2000/svg">
<path d="M21.4552 2H2.49444C2.21908 2.00018 1.99591 2.224 1.99609 2.5V21.5005C1.99628 21.7766 2.21962 22.0002 2.49505 22H9.48098C9.75634 21.9998 9.97951 21.776 9.97932 21.5V10H21.4558C21.7312 9.99982 21.9543 9.776 21.9542 9.5V2.49939C21.954 2.22345 21.7306 1.99982 21.4552 2ZM20.9563 9H17.4636V6.5C17.4636 6.22388 17.2402 6 16.9646 6C16.6891 6 16.4657 6.22388 16.4657 6.5V9H13.472V6.5C13.472 6.22388 13.2486 6 12.973 6C12.6975 6 12.4741 6.22388 12.4741 6.5V9H9.97932V6.5C9.97932 6.22388 9.75592 6 9.48037 6C9.20483 6 8.98142 6.22388 8.98142 6.5V9H6.48666C6.21112 9 5.98771 9.22388 5.98771 9.5C5.98771 9.77612 6.21112 10 6.48666 10H8.98142V12.5H6.48666C6.21112 12.5 5.98771 12.7239 5.98771 13C5.98771 13.2761 6.21112 13.5 6.48666 13.5H8.98142V16.5H6.48666C6.21112 16.5 5.98771 16.7239 5.98771 17C5.98771 17.2761 6.21112 17.5 6.48666 17.5H8.98142V21H2.994V3H20.9563V9Z" fill="#5B3F69"/>
</svg>
