<svg xmlns="http://www.w3.org/2000/svg" width="35" height="35" fill="none" viewBox="0 0 24 24">
  <path fill="#745086" d="M19.92 12.581H4.56V5.4a2.041 2.041 0 0 1 .605-1.456l.016-.015a2.07 2.07 0 0 1 2.344-.406 3.15 3.15 0 0 0 .47 3.856l.439.436-.807.805.905.903.807-.805 4.467-4.456.807-.804-.905-.903-.807.804-.438-.437a3.167 3.167 0 0 0-4.037-.358 3.351 3.351 0 0 0-4.15.462l-.017.016A3.313 3.313 0 0 0 3.28 5.4v7.182H2v1.277h1.28v1.225c0 .103.017.205.05.303l1.19 3.563a.956.956 0 0 0 .91.655h.517L5.48 21.2h1.333l.467-1.596h8.324l.48 1.596h1.336l-.48-1.596h.83a.96.96 0 0 0 .91-.655l1.19-3.563c.033-.098.05-.2.05-.303v-1.225h1.28v-1.277h-1.28ZM8.9 3.824a1.883 1.883 0 0 1 2.658 0l.438.437-2.657 2.65-.438-.436a1.874 1.874 0 0 1 0-2.651Zm9.74 11.207-1.101 3.296H5.66l-1.1-3.296v-1.173h14.08v1.173Z"/>
</svg>
