<svg xmlns="http://www.w3.org/2000/svg" width="35" height="35" fill="none" viewBox="0 0 34 34">
  <path fill="#745086" d="M15.97 5.452c-3.233.438-5.279 2.75-5.624 6.348-.06.631-.06.91.007 1.255.199 1.11.95 1.873 2.052 2.086.75.152 1.6-.12 2.178-.698l.292-.292.292.292c.312.313.638.498 1.09.631l.278.087v2.224l-.252.1c-.372.146-.658.418-.89.823l-.2.352h-3.047c-2.962 0-3.055.007-3.181.133-.12.12-.133.22-.133.956 0 .71.02.844.126.976l.126.16 2.75.02 2.755.02.97 1.188.976 1.196v4.382h-.564c-.518 0-.585.014-.73.166-.213.206-.213.392 0 .598l.159.166h1.534c1.806 0 1.919-.033 1.925-.511 0-.326-.186-.419-.843-.419h-.551v-4.369l1.069-1.202 1.07-1.195 2.655-.02 2.657-.02.126-.16c.106-.132.126-.265.126-.976 0-.737-.013-.836-.133-.956-.126-.126-.219-.133-3.207-.133h-3.081l-.12-.265a1.9 1.9 0 0 0-.877-.877l-.285-.126v-1.13c0-1.015.013-1.128.12-1.161.398-.126.81-.366 1.088-.638l.32-.312.291.292a2.49 2.49 0 0 0 3.527 0c.743-.737.916-1.76.597-3.559-.485-2.796-2.384-4.755-5.166-5.346-.605-.126-1.687-.166-2.271-.086Zm1.621 2.065c.412 1.468.637 2.51.803 3.706.233 1.607.16 2.098-.365 2.61-.63.61-1.54.59-2.204-.054-.439-.425-.518-.697-.459-1.56.1-1.461.412-2.962.943-4.569.445-1.348.439-1.341.718-1.341h.225l.339 1.208Zm-1.853-1.042c0 .02-.106.345-.239.717a20.577 20.577 0 0 0-1.022 4.86c-.087 1.09-.18 1.395-.538 1.754-.638.637-1.568.63-2.218-.027-.399-.398-.498-.67-.498-1.408 0-1.427.511-3.021 1.301-4.064.379-.504 1.123-1.109 1.72-1.407.585-.286 1.494-.545 1.494-.425Zm3.42.298c2.085.83 3.334 2.73 3.467 5.26.053 1.016-.027 1.295-.472 1.753-.644.657-1.547.664-2.211.013-.346-.338-.458-.67-.518-1.48-.113-1.601-.485-3.44-1.149-5.705-.027-.113-.007-.12.18-.086.112.026.43.133.703.245Zm-1.667 11.628c.093.073.173.166.173.2 0 .033-.312.06-.697.06-.425 0-.697-.027-.697-.067 0-.04.1-.126.219-.2.292-.179.77-.179 1.002.007Zm6.747 1.355v.232H9.762v-.465h14.476v.233Zm-7.703 1.64c0 .266-.026.452-.053.412-.465-.551-.677-.817-.677-.85 0-.02.166-.04.365-.04h.365v.478Zm1.421.02c-.245.272-.458.498-.471.498-.014 0-.02-.226-.02-.498v-.498h.935l-.445.498Z"/>
  <path fill="#745086" d="M4.217 17.398a.487.487 0 0 0-.113.313c0 .106.259 1.334.571 2.742l.571 2.55v5.346l.18.14c.126.099.232.125.351.099.366-.093.366-.086.385-2.125l.02-1.893h4.436l.02 1.893c.02 2.039.02 2.032.385 2.125.12.026.226 0 .352-.1l.18-.14v-5.83l-.173-.132c-.173-.133-.246-.14-2.776-.14H6.003l-.524-2.37c-.372-1.667-.558-2.405-.645-2.49a.452.452 0 0 0-.617.012Zm6.408 6.01v.233H6.176v-.465h4.449v.232Zm18.541-6.023c-.087.086-.273.824-.645 2.49l-.524 2.371h-2.603c-2.53 0-2.603.007-2.776.14l-.173.132v5.832l.18.14c.126.099.232.125.352.099.365-.093.365-.086.385-2.125l.02-1.893h4.436l.02 1.893c.02 2.039.02 2.032.385 2.125.12.026.225 0 .352-.1l.179-.14v-5.345l.571-2.55c.312-1.408.571-2.636.571-2.742.013-.379-.465-.591-.73-.326Zm-1.342 6.023v.233h-4.449v-.465h4.449v.232Z"/>
</svg>
