<svg xmlns="http://www.w3.org/2000/svg" width="294" height="512" fill="none" viewBox="0 0 294 512">
  <path fill="#CBF1FF" d="M458.044 350.841c-1.136.063-2.478-.248-3.493-.792-1.084-.579-2.171-1.61-2.872-2.663-.781-1.172-1.368-2.767-1.598-4.183-.262-1.61-.172-3.538.181-5.127.404-1.812 1.27-3.797 2.263-5.329 1.127-1.739 2.782-3.479 4.397-4.706 1.82-1.381 4.179-2.573 6.32-3.254 2.391-.761 5.279-1.138 7.774-1.069 2.762.076 5.925.715 8.537 1.673 2.871 1.054 5.992 2.82 8.445 4.726 2.678 2.08 5.41 4.975 7.412 7.789 2.17 3.053 4.167 6.962 5.435 10.545 1.368 3.865 2.32 8.555 2.616 12.674.317 4.421-.016 9.559-.863 13.9-.906 4.64-2.672 9.812-4.74 14.007-2.203 4.466-5.425 9.212-8.69 12.868-3.464 3.879-8.039 7.731-12.361 10.461-4.572 2.888-10.265 5.414-15.399 6.877-5.414 1.544-11.869 2.385-17.473 2.319-5.897-.069-12.659-1.158-18.322-2.909-5.942-1.839-12.493-4.962-17.758-8.425-5.513-3.627-11.305-8.729-15.712-13.79-4.605-5.289-9.109-12.144-12.228-18.548-3.254-6.681-6-14.903-7.475-22.265-1.535-7.666-2.163-16.732-1.738-24.557.443-8.138 2.153-17.413 4.599-25.136 2.54-8.021 6.64-16.809 11.077-23.831 4.601-7.282 10.958-14.877 17.197-20.609 6.463-5.936 14.759-11.678 22.461-15.592 7.967-4.051 17.714-7.376 26.4-9.051 8.976-1.73 19.54-2.226 28.628-1.383 9.381.87 20.03 3.426 28.868 6.888 9.115 3.572 19.064 9.184 26.979 15.176 8.157 6.176 16.627 14.618 22.978 22.854 6.541 8.479 12.818 19.299 17.046 29.307 4.348 10.295 7.846 22.837 9.513 33.985 1.715 11.459 2.019 24.904.861 36.441-1.19 11.85-4.278 25.266-8.333 36.372-4.164 11.4-10.601 23.809-17.415 33.654-6.99 10.098-16.483 20.548-25.706 28.351-9.454 7.998-21.472 15.632-32.559 20.724-11.358 5.217-25.159 9.343-37.401 11.222-12.535 1.924-27.212 2.075-39.783.448-12.865-1.664-27.403-5.686-39.415-10.867-12.287-5.299-25.635-13.4-36.2-21.928-10.802-8.718-21.95-20.503-30.246-31.917-8.476-11.665-16.53-26.452-21.861-40.067-5.446-13.904-9.695-30.768-11.553-45.705-1.731-12.41-5.48-26.394-10.193-37.891-4.596-11.21-11.466-23.353-18.651-32.894-7-9.296-16.363-18.852-25.4-25.874-8.8-6.838-19.881-13.28-30.053-17.427-9.896-4.036-21.842-7.08-32.384-8.215-10.249-1.104-22.184-.722-32.346 1.072-9.872 1.742-20.969 5.336-30.067 9.773-8.83 4.307-18.367 10.68-25.828 17.304-7.233 6.422-14.635 14.969-20.033 23.189-5.229 7.963-10.107 17.959-13.19 27.105-2.981 8.851-5.15 19.507-5.843 28.881-.669 9.064-.149 19.588 1.446 28.519 1.539 8.623 4.536 18.286 8.154 26.171 3.49 7.605 8.584 15.782 13.834 22.136 5.056 6.118 11.74 12.333 18.133 16.811 6.15 4.305 13.833 8.257 20.832 10.675 6.722 2.32 14.779 3.897 21.838 4.235 6.765.324 14.589-.403 21.192-2.007 6.317-1.535 13.36-4.328 19.065-7.601 5.448-3.126 11.262-7.608 15.728-12.172 4.255-4.348 8.521-10.043 11.525-15.448 2.857-5.139 5.4-11.515 6.853-17.282 1.376-5.468 2.169-11.983 2.108-17.645-.058-5.353-.902-11.5-2.323-16.635-1.34-4.84-3.586-10.186-6.115-14.451-2.376-4.007-5.698-8.221-9.017-11.376-3.106-2.952-7.115-5.829-10.868-7.748-3.496-1.786-7.785-3.253-11.61-3.923-3.548-.622-7.724-.733-11.291-.257-3.287.439-7.008 1.512-10.037 2.943-2.776 1.311-5.773 3.306-8.065 5.428-2.085 1.932-4.185 4.53-5.628 7.04-1.303 2.267-2.441 5.122-3.018 7.708-.517 2.316-.728 5.088-.514 7.457.189 2.103.776 4.5 1.626 6.409.749 1.683 1.93 3.475 3.201 4.753 1.115 1.12 2.637 2.168 4.077 2.73 1.266.496 2.856.752 4.199.618 1.207-.121 2.589-.608 3.602-1.317.949-.666 1.873-1.749 2.389-2.827.516-1.08 1.441-2.163 2.39-2.829 1.012-.709 2.394-1.196 3.602-1.317 1.343-.134 2.932.123 4.198.618 1.439.562 2.963 1.61 4.077 2.731 1.272 1.277 2.453 3.069 3.202 4.752.85 1.909 1.436 4.306 1.626 6.409.213 2.37.002 5.143-.514 7.457-.578 2.587-1.716 5.441-3.019 7.708-1.442 2.51-3.543 5.108-5.628 7.04-2.292 2.122-5.289 4.118-8.064 5.428-3.03 1.432-6.75 2.504-10.039 2.944-3.565.476-7.742.364-11.289-.257-3.826-.671-8.115-2.138-11.611-3.924-3.753-1.919-7.762-4.796-10.867-7.748-3.32-3.154-6.64-7.369-9.017-11.376-2.53-4.265-4.776-9.611-6.116-14.451-1.421-5.135-2.265-11.281-2.323-16.635-.061-5.662.731-12.177 2.11-17.645 1.452-5.767 3.994-12.143 6.85-17.282 3.005-5.405 7.272-11.099 11.527-15.448 4.464-4.564 10.279-9.046 15.728-12.172 5.704-3.273 12.748-6.066 19.065-7.601 6.602-1.604 14.426-2.331 21.192-2.007 7.058.338 15.115 1.915 21.837 4.236 7 2.417 14.682 6.37 20.831 10.676 6.395 4.476 13.079 10.691 18.135 16.809 5.25 6.354 10.343 14.531 13.833 22.136 3.618 7.886 6.615 17.548 8.155 26.171 1.594 8.931 2.114 19.455 1.445 28.519-.692 9.376-2.861 20.03-5.843 28.881-3.082 9.147-7.96 19.142-13.19 27.105-5.398 8.22-12.8 16.767-20.034 23.189-7.46 6.624-16.996 12.997-25.826 17.304-9.098 4.438-20.196 8.031-30.068 9.773-10.162 1.794-22.097 2.176-32.346 1.073-10.542-1.136-22.487-4.18-32.384-8.215-10.171-4.148-21.253-10.59-30.052-17.427-9.038-7.023-18.4-16.579-25.401-25.875-7.185-9.541-14.055-21.684-18.65-32.894-4.714-11.497-8.462-25.481-10.194-37.891-1.775-12.722-1.971-27.628-.567-40.402 1.438-13.087 4.984-27.883 9.578-40.117 4.704-12.526 11.919-26.144 19.527-36.929 7.785-11.037 18.324-22.438 28.541-30.93 10.451-8.688 23.711-16.952 35.926-22.436 12.487-5.606 27.641-10 41.068-11.946 13.721-1.988 29.769-2.024 43.501-.136 14.027 1.928 29.86 6.44 42.931 12.194 10.954 4.607 24.195 8.14 35.899 9.541 11.41 1.365 24.715 1.098 36.065-.761 11.056-1.811 23.506-5.669 33.733-10.497 9.958-4.7 20.736-11.703 29.193-19.014 8.228-7.113 16.677-16.611 22.87-25.77 6.022-8.904 11.679-20.106 15.302-30.38 3.518-9.979 6.147-22.013 7.089-32.626.913-10.3.501-22.285-1.153-32.48-1.604-9.885-4.851-20.988-8.835-30.078-3.858-8.806-9.544-18.305-15.439-25.721-5.704-7.177-13.281-14.506-20.556-19.832-7.032-5.148-15.849-9.932-23.905-12.926-7.78-2.891-17.133-4.958-25.353-5.562-7.927-.582-17.12.029-24.91 1.696-7.502 1.605-15.896 4.663-22.733 8.325-6.574 3.52-13.629 8.632-19.093 13.882-5.248 5.04-10.559 11.686-14.363 18.028-3.645 6.08-6.967 13.662-8.964 20.556-1.911 6.596-3.163 14.491-3.354 21.392-.182 6.588.554 14.194 2.032 20.595 1.406 6.1 3.903 12.884 6.794 18.359 2.749 5.203 6.66 10.738 10.623 14.962 3.756 4.005 8.656 7.994 13.289 10.768 4.381 2.623 9.8 4.918 14.685 6.175 4.604 1.183 10.072 1.784 14.805 1.583 4.445-.19 9.531-1.146 13.756-2.632 3.953-1.389 8.296-3.649 11.732-6.152 3.2-2.332 6.537-5.557 8.995-8.751 2.279-2.961 4.457-6.758 5.853-10.287 1.287-3.253 2.275-7.222 2.628-10.733.322-3.216.197-6.979-.382-10.154-.528-2.89-1.59-6.127-2.908-8.713-1.192-2.336-2.944-4.812-4.757-6.637-1.624-1.635-3.773-3.217-5.805-4.205-1.805-.876-4.046-1.534-6.023-1.703-1.742-.15-3.79.042-5.463.576-1.469.469-3.082 1.35-4.26 2.396-1.035.92-2.038 2.26-2.6 3.566-.506 1.174-.801 2.693-.731 3.98.067 1.21.485 2.604 1.104 3.62.619 1.016 1.038 2.41 1.104 3.62.07 1.288-.225 2.806-.73 3.98-.562 1.306-1.566 2.644-2.602 3.565-1.176 1.047-2.79 1.927-4.258 2.397-1.674.533-3.722.727-5.463.576-1.977-.17-4.219-.827-6.023-1.704-2.034-.988-4.183-2.569-5.806-4.203-1.814-1.826-3.565-4.303-4.756-6.637-1.32-2.587-2.382-5.825-2.909-8.714-.579-3.176-.703-6.939-.381-10.155.352-3.51 1.34-7.479 2.627-10.732 1.396-3.529 3.575-7.327 5.854-10.288 2.458-3.194 5.794-6.418 8.995-8.75 3.435-2.504 7.779-4.764 11.731-6.153 4.225-1.485 9.311-2.443 13.756-2.63 4.733-.202 10.202.398 14.806 1.582 4.884 1.257 10.304 3.551 14.684 6.175 4.633 2.774 9.533 6.763 13.29 10.768 3.962 4.224 7.874 9.758 10.622 14.962 2.891 5.474 5.387 12.258 6.795 18.358 1.478 6.401 2.213 14.007 2.03 20.596-.191 6.901-1.442 14.795-3.353 21.391-1.997 6.894-5.318 14.476-8.964 20.555-3.803 6.344-9.115 12.989-14.362 18.03-5.464 5.249-12.519 10.361-19.094 13.882-6.836 3.661-15.231 6.72-22.733 8.325-7.789 1.667-16.984 2.278-24.91 1.696-8.219-.604-17.573-2.671-25.352-5.562-8.058-2.995-16.873-7.777-23.906-12.927-7.276-5.325-14.851-12.654-20.557-19.832-5.894-7.416-11.58-16.915-15.439-25.72-3.982-9.09-7.229-20.193-8.834-30.079-1.654-10.195-2.065-22.18-1.152-32.48.941-10.612 3.569-22.647 7.088-32.626 3.623-10.274 9.28-21.476 15.302-30.38 6.194-9.159 14.641-18.656 22.87-25.77 8.457-7.31 19.234-14.313 29.192-19.013 10.229-4.828 22.678-8.687 33.735-10.498 11.348-1.859 24.654-2.126 36.065-.76 11.704 1.4 24.944 4.933 35.899 9.541 11.229 4.723 23.444 11.995 33.126 19.677 9.92 7.87 20.175 18.54 27.823 28.896 7.831 10.604 15.292 24.068 20.256 36.48 5.08 12.701 9.078 28.125 10.873 41.798 1.836 13.986 1.925 30.352.276 44.364-1.687 14.323-5.692 30.501-10.824 43.863-5.244 13.652-13.238 28.476-21.639 40.202-8.581 11.976-20.166 24.329-31.378 33.512-9.222 7.802-18.716 18.252-25.706 28.35-6.814 9.844-13.251 22.254-17.414 33.653-4.056 11.107-7.143 24.523-8.333 36.373-1.159 11.538-.855 24.982.859 36.441 1.669 11.147 5.166 23.691 9.515 33.985 4.226 10.007 10.504 20.828 17.044 29.307 6.353 8.236 14.822 16.679 22.978 22.853 7.917 5.993 17.866 11.605 26.98 15.177 8.838 3.463 19.487 6.019 28.868 6.889 9.088.842 19.652.346 28.628-1.384 8.687-1.675 18.433-5.001 26.4-9.05 7.702-3.914 15.997-9.656 22.46-15.593 6.241-5.731 12.598-13.327 17.198-20.608 4.437-7.023 8.537-15.811 11.078-23.832 2.446-7.723 4.156-16.998 4.597-25.136.426-7.826-.202-16.89-1.737-24.557-1.474-7.361-4.22-15.583-7.475-22.265-3.12-6.403-7.622-13.259-12.228-18.548-4.407-5.06-10.198-10.163-15.712-13.79-5.265-3.462-11.815-6.587-17.758-8.425-5.663-1.751-12.426-2.84-18.321-2.909-5.605-.066-12.059.775-17.474 2.319-5.135 1.464-10.826 3.99-15.398 6.878-4.323 2.729-8.899 6.582-12.362 10.46-3.264 3.656-6.487 8.401-8.69 12.868-2.069 4.196-3.834 9.367-4.739 14.007-.847 4.342-1.182 9.479-.864 13.9.296 4.119 1.248 8.809 2.616 12.675 1.268 3.583 3.265 7.491 5.436 10.544 2.001 2.814 4.733 5.71 7.411 7.79 2.453 1.906 5.575 3.671 8.446 4.725 2.612.959 5.775 1.597 8.536 1.674 2.495.067 5.384-.31 7.774-1.069 2.142-.681 4.5-1.873 6.32-3.255 1.616-1.227 3.27-2.966 4.397-4.705.993-1.532 1.86-3.518 2.263-5.329.353-1.59.444-3.518.182-5.127-.232-1.416-.818-3.011-1.598-4.184-.702-1.052-1.789-2.084-2.872-2.663-1.016-.543-2.358-.854-3.493-.791Z"/>
</svg>
