<svg xmlns="http://www.w3.org/2000/svg" width="50" height="50" fill="none" viewBox="0 0 50 50">
  <g clip-path="url(#a)">
    <path fill="#5B3F69" d="M25.002 4.167C13.496 4.167 4.17 13.494 4.17 25c0 10.399 7.618 19.017 17.578 20.58V31.022h-5.29V25h5.29v-4.59c0-5.221 3.11-8.105 7.87-8.105 2.278 0 4.663.407 4.663.407v5.127h-2.628c-2.587 0-3.395 1.606-3.395 3.253V25h5.778l-.923 6.022h-4.855V45.58C38.218 44.017 45.837 35.4 45.837 25c0-11.506-9.328-20.833-20.834-20.833Z"/>
  </g>
  <defs>
    <clipPath id="a">
      <path fill="#fff" d="M0 0h50v50H0z"/>
    </clipPath>
  </defs>
</svg>
