<svg xmlns="http://www.w3.org/2000/svg" width="42" height="42" fill="none" viewBox="0 0 42 42">
  <path fill="#5B3F69" d="M23.142.169c2.345.004 3.533.016 4.56.047l.404.013c.467.016.928.037 1.483.063 2.217.103 3.73.453 5.058.969a10.15 10.15 0 0 1 3.69 2.403 10.224 10.224 0 0 1 2.403 3.69c.514 1.327.865 2.841.97 5.058.024.556.044 1.016.06 1.484l.014.404c.03 1.026.044 2.215.048 4.56l.002 1.553v1.175l-.001 1.554c-.004 2.345-.017 3.533-.047 4.56l-.014.404c-.016.467-.037.927-.063 1.483-.102 2.217-.455 3.73-.969 5.058a10.17 10.17 0 0 1-2.403 3.69 10.24 10.24 0 0 1-3.69 2.403c-1.328.514-2.84.865-5.058.969-.555.025-1.016.045-1.483.061l-.405.013c-1.026.03-2.214.045-4.559.05H21.59l-.588.001h-.588l-1.553-.002c-2.345-.004-3.533-.016-4.56-.046l-.404-.014c-.467-.016-.928-.037-1.484-.063-2.217-.103-3.727-.455-5.057-.969a10.19 10.19 0 0 1-3.691-2.403 10.217 10.217 0 0 1-2.403-3.69c-.515-1.329-.864-2.841-.969-5.058-.024-.555-.044-1.016-.06-1.483L.217 27.7c-.03-1.026-.044-2.215-.049-4.56v-4.28c.004-2.344.016-3.533.047-4.56l.013-.403c.017-.468.037-.928.063-1.484.103-2.219.454-3.73.97-5.057a10.165 10.165 0 0 1 2.402-3.691A10.202 10.202 0 0 1 7.355 1.26C8.683.745 10.193.396 12.412.292c.556-.025 1.017-.045 1.484-.061L14.3.218c1.027-.03 2.215-.045 4.56-.049h4.282Zm-2.141 10.415c-5.756 0-10.417 4.666-10.417 10.417 0 5.756 4.666 10.416 10.417 10.416 5.756 0 10.416-4.666 10.416-10.416 0-5.757-4.665-10.417-10.416-10.417Zm0 4.167A6.25 6.25 0 0 1 27.25 21 6.25 6.25 0 0 1 21 27.25 6.25 6.25 0 0 1 14.75 21 6.25 6.25 0 0 1 21 14.75Zm10.937-7.292a2.606 2.606 0 0 0-2.604 2.602 2.606 2.606 0 0 0 2.604 2.604 2.606 2.606 0 0 0 2.604-2.604 2.606 2.606 0 0 0-2.604-2.602Z"/>
</svg>
